<svg width="38" height="65" viewBox="0 0 38 65" fill="none" xmlns="http://www.w3.org/2000/svg">
<path d="M32.89 3.89062C32.25 3.89062 31.68 4.28062 31.44 4.88062C31.22 5.43062 30.71 5.81062 30.12 5.85062C25.82 6.21062 22.58 9.71061 22.58 14.0006C22.58 18.2906 25.82 21.7906 30.12 22.1506C30.71 22.2006 31.22 22.5806 31.44 23.1206C31.68 23.7206 32.25 24.1106 32.89 24.1106C33.75 24.1106 34.45 23.4106 34.45 22.5506V5.4606C34.45 4.6006 33.75 3.9006 32.89 3.9006V3.89062Z" fill="#D89B86"/>
<path d="M8.14999 27.5403C8.14999 27.9303 8.36999 28.1802 8.48999 28.3002C8.94999 28.7202 9.2 29.3303 9.16 29.9503C9.12 30.5703 8.80999 31.1502 8.29999 31.5202C5.71999 33.3902 4.17999 36.4103 4.17999 39.5703V60.6602H24.09V39.5703C24.09 36.4003 22.55 33.3902 19.97 31.5202C19.47 31.1502 19.15 30.5803 19.11 29.9503C19.07 29.3303 19.32 28.7203 19.78 28.2903C19.91 28.1703 20.13 27.9102 20.13 27.5302C20.13 26.9602 19.66 26.4902 19.09 26.4902H9.19C8.61 26.4902 8.14999 26.9602 8.14999 27.5302V27.5403Z" fill="#6D9AC2"/>
<path d="M32.89 0.76001C31.3 0.76001 29.86 1.54999 29 2.82999C24.19 3.58999 20.5 7.24 19.64 11.91H8.42003C7.27003 11.91 6.34001 12.84 6.34001 13.99C6.34001 15.14 7.27003 16.07 8.42003 16.07H11.08V22.33H9.18001C6.31001 22.33 3.97002 24.67 3.97002 27.54C3.97002 28.19 4.10002 28.83 4.33002 29.43C1.60002 32.07 0.0100098 35.74 0.0100098 39.58V62.75C0.0100098 63.9 0.940012 64.83 2.09001 64.83H26.16C27.31 64.83 28.24 63.9 28.24 62.75V39.58C28.24 35.74 26.65 32.07 23.92 29.43C24.16 28.83 24.28 28.19 24.28 27.54C24.28 24.67 21.94 22.33 19.07 22.33H15.24V16.07H19.63C20.49 20.74 24.18 24.39 28.99 25.15C29.85 26.43 31.29 27.22 32.88 27.22C35.47 27.22 37.57 25.12 37.57 22.53V5.44C37.57 2.85 35.47 0.75 32.88 0.75L32.89 0.76001ZM20.13 27.54C20.13 27.93 19.91 28.18 19.78 28.3C19.32 28.72 19.07 29.33 19.11 29.96C19.15 30.58 19.46 31.16 19.97 31.53C22.55 33.4 24.09 36.41 24.09 39.58V60.67H4.18001V39.58C4.18001 36.41 5.72 33.4 8.3 31.53C8.8 31.16 9.12002 30.59 9.16002 29.96C9.20002 29.34 8.95001 28.73 8.49001 28.31C8.36001 28.19 8.15001 27.94 8.15001 27.55C8.15001 26.98 8.62002 26.51 9.19002 26.51H19.09C19.67 26.51 20.13 26.98 20.13 27.55V27.54ZM34.45 22.54C34.45 23.4 33.75 24.1 32.89 24.1C32.25 24.1 31.68 23.71 31.44 23.11C31.22 22.56 30.71 22.19 30.12 22.14C25.82 21.78 22.58 18.28 22.58 13.99C22.58 9.69999 25.82 6.2 30.12 5.84C30.71 5.79 31.22 5.41 31.44 4.87C31.68 4.27 32.25 3.88 32.89 3.88C33.75 3.88 34.45 4.58 34.45 5.44V22.53V22.54Z" fill="#222E4C"/>
</svg>
