<svg width="62" height="62" viewBox="0 0 62 62" fill="none" xmlns="http://www.w3.org/2000/svg">
<path d="M22.96 25.5L11.92 36.54C11.74 36.72 11.58 36.91 11.42 37.1L22.96 25.51V25.5Z" fill="#6D9AC2"/>
<path d="M7.59 50.7009C7.59 50.7009 7.59 50.7009 7.59 50.7109C7.53 50.3809 7.48 50.0409 7.44 49.7109C7.48 50.0409 7.52 50.3709 7.58 50.7009H7.59Z" fill="#6D9AC2"/>
<path d="M24.15 24.6402L40.03 40.5202C40.12 40.6102 40.26 40.6102 40.35 40.5202L51.07 29.8002C55 25.8702 56.47 19.8802 54.22 14.7902C50.04 5.32024 40.15 8.34024 35.84 12.6102C32.91 15.5202 24.14 24.3102 24.14 24.3102C24.05 24.4002 24.05 24.5402 24.14 24.6302L24.15 24.6402ZM36.7 13.8502C38.73 11.7902 43.83 8.76024 48.59 11.9902C49.25 12.4402 49.42 13.3402 48.97 14.0002C48.52 14.6602 47.62 14.8302 46.96 14.3802C43.01 11.6902 38.92 15.7102 38.75 15.8802C38.47 16.1602 38.1 16.3102 37.73 16.3102C37.36 16.3102 36.99 16.1702 36.71 15.8902C36.15 15.3302 36.14 14.4202 36.7 13.8502Z" fill="#6D9AC2"/>
<path d="M39.15 41.7306L39.17 41.7106L37.1 39.6406L39.15 41.7306Z" fill="#6D9AC2"/>
<path d="M7.30998 47.6602C7.30998 48.1902 7.32999 48.7102 7.37999 49.2402C7.32999 48.7302 7.29999 48.2202 7.29999 47.7002C7.29999 47.6802 7.29999 47.6702 7.29999 47.6602H7.30998Z" fill="#6D9AC2"/>
<path d="M23.99 24.4805L11.43 37.1005L11.25 37.2805C8.3 40.2305 7.32 43.5005 7.31 47.6705C7.31 47.6805 7.31 47.7005 7.31 47.7105C7.31 48.2205 7.34 48.7405 7.39 49.2505C7.41 49.4105 7.44001 49.5605 7.46001 49.7205C7.50001 50.0505 7.55 50.3905 7.61 50.7205C8.14 51.6005 8.77 52.4305 9.5 53.1605C11.94 55.6005 15.17 56.9405 18.62 56.9405C22.07 56.9405 25.3 55.6005 27.74 53.1605L40.18 40.7105L38.14 38.6205L24 24.4805H23.99Z" fill="#D89B86"/>
<path d="M55.97 5.47C52.44 1.94 47.75 0 42.77 0C37.79 0 33.09 1.94 29.57 5.47L5.64999 29.39C2.11999 32.92 0.179993 37.6 0.179993 42.59C0.179993 47.58 2.11999 52.26 5.64999 55.79C9.17999 59.32 13.87 61.26 18.86 61.26C23.85 61.26 28.54 59.32 32.06 55.79L55.98 31.87C63.26 24.59 63.26 12.75 55.98 5.47H55.97ZM27.96 51.7C25.53 54.13 22.29 55.48 18.85 55.48C15.41 55.48 12.17 54.14 9.73 51.7C7.3 49.27 5.96001 46.03 5.96001 42.59C5.96001 39.15 7.30001 35.91 9.74001 33.48L20.91 22.31L39.14 40.54L27.97 51.71L27.96 51.7ZM51.88 27.78L40.71 38.95L22.48 20.72L33.65 9.55C36.08 7.12 39.32 5.77 42.77 5.77C46.22 5.77 49.45 7.11 51.89 9.55C56.92 14.58 56.92 22.75 51.89 27.78H51.88Z" fill="#222E4C"/>
</svg>
