<svg width="62" height="61" viewBox="0 0 62 61" fill="none" xmlns="http://www.w3.org/2000/svg">
<path d="M55.05 4.53906H6.66003C5.59003 4.53906 4.72003 5.40906 4.72003 6.47906V54.8691C4.72003 55.9391 5.59003 56.8091 6.66003 56.8091H55.05C56.12 56.8091 56.99 55.9391 56.99 54.8691V6.47906C56.99 5.40906 56.12 4.53906 55.05 4.53906ZM46.27 44.1991C46.27 46.9291 44.05 49.1391 41.33 49.1391C38.61 49.1391 36.39 46.9191 36.39 44.1991V34.5291H25.39V44.1691C25.39 46.9091 23.16 49.1391 20.42 49.1391C17.68 49.1391 15.45 46.9091 15.45 44.1691V17.1691C15.45 14.4291 17.68 12.1991 20.42 12.1991C23.16 12.1991 25.39 14.4291 25.39 17.1691V25.6191H36.39V17.1391C36.39 14.4091 38.61 12.1991 41.33 12.1991C44.05 12.1991 46.27 14.4191 46.27 17.1391V44.1891V44.1991Z" fill="#6D9AC2"/>
<path d="M41.32 14.2092C39.7 14.2092 38.39 15.5292 38.39 17.1392V26.6192C38.39 27.1792 37.94 27.6192 37.38 27.6192H24.37C23.81 27.6192 23.36 27.1692 23.36 26.6192V17.1592C23.36 15.5292 22.03 14.1992 20.4 14.1992C18.77 14.1992 17.44 15.5292 17.44 17.1592V44.1592C17.44 45.7892 18.77 47.1192 20.4 47.1192C22.03 47.1192 23.36 45.7892 23.36 44.1592V33.5092C23.36 32.9492 23.81 32.4992 24.37 32.4992H37.38C37.94 32.4992 38.39 32.9492 38.39 33.5092V44.1792C38.39 45.7992 39.71 47.1092 41.32 47.1092C42.93 47.1092 44.25 45.7892 44.25 44.1792V17.1292C44.25 15.5092 42.93 14.1992 41.32 14.1992V14.2092Z" fill="#D89B86"/>
<path d="M55.05 0.519531H6.66001C3.38001 0.519531 0.700012 3.18952 0.700012 6.47952V54.8695C0.700012 58.1595 3.37001 60.8295 6.66001 60.8295H55.05C58.34 60.8295 61.01 58.1595 61.01 54.8695V6.47952C61.01 3.19952 58.34 0.519531 55.05 0.519531ZM56.99 54.8595C56.99 55.9295 56.12 56.7995 55.05 56.7995H6.66001C5.59001 56.7995 4.72001 55.9295 4.72001 54.8595V6.46953C4.72001 5.39953 5.59001 4.52953 6.66001 4.52953H55.05C56.12 4.52953 56.99 5.39953 56.99 6.46953V54.8595Z" fill="#222E4C"/>
<path d="M41.32 12.1992C38.59 12.1992 36.38 14.4192 36.38 17.1392V25.6192H25.38V17.1692C25.38 14.4292 23.15 12.1992 20.41 12.1992C17.67 12.1992 15.44 14.4292 15.44 17.1692V44.1692C15.44 46.9092 17.67 49.1392 20.41 49.1392C23.15 49.1392 25.38 46.9092 25.38 44.1692V34.5292H36.38V44.1992C36.38 46.9292 38.6 49.1392 41.32 49.1392C44.04 49.1392 46.26 46.9192 46.26 44.1992V17.1492C46.26 14.4192 44.04 12.2092 41.32 12.2092V12.1992ZM44.25 44.1892C44.25 45.8092 42.93 47.1192 41.32 47.1192C39.71 47.1192 38.39 45.7992 38.39 44.1892V33.5192C38.39 32.9592 37.94 32.5092 37.38 32.5092H24.37C23.81 32.5092 23.36 32.9592 23.36 33.5192V44.1692C23.36 45.7992 22.03 47.1292 20.4 47.1292C18.77 47.1292 17.44 45.7992 17.44 44.1692V17.1692C17.44 15.5392 18.77 14.2092 20.4 14.2092C22.03 14.2092 23.36 15.5392 23.36 17.1692V26.6292C23.36 27.1892 23.81 27.6292 24.37 27.6292H37.38C37.94 27.6292 38.39 27.1792 38.39 26.6292V17.1492C38.39 15.5292 39.71 14.2192 41.32 14.2192C42.93 14.2192 44.25 15.5392 44.25 17.1492V44.1992V44.1892Z" fill="#222E4C"/>
</svg>
