<svg width="44" height="68" viewBox="0 0 44 68" fill="none" xmlns="http://www.w3.org/2000/svg">
<path d="M36 16.9902H7.67001C6.31001 16.9902 5.20001 18.1002 5.20001 19.4602V47.7802C5.20001 49.1402 6.31001 50.2502 7.67001 50.2502H36C37.36 50.2502 38.47 49.1402 38.47 47.7802V19.4602C38.47 18.1002 37.36 16.9902 36 16.9902ZM16.17 48.2303C14.7 48.2303 13.51 47.0403 13.51 45.5703C13.51 44.1003 14.7 42.9102 16.17 42.9102C17.64 42.9102 18.83 44.1003 18.83 45.5703C18.83 47.0403 17.64 48.2303 16.17 48.2303ZM27.51 48.2303C26.04 48.2303 24.85 47.0403 24.85 45.5703C24.85 44.1003 26.04 42.9102 27.51 42.9102C28.98 42.9102 30.17 44.1003 30.17 45.5703C30.17 47.0403 28.98 48.2303 27.51 48.2303ZM35.73 39.0302C35.73 40.2002 34.78 41.1502 33.62 41.1502H10.06C8.89 41.1502 7.95001 40.2002 7.95001 39.0302V21.4002C7.95001 20.2302 8.9 19.2903 10.06 19.2903H33.62C34.79 19.2903 35.73 20.2402 35.73 21.4002V39.0302Z" fill="#6D9AC2"/>
<path d="M11.64 28.8906L14.56 23.5306L17.81 31.7406L21 26.2506L24.36 29.1306H33.47V21.3906L10.06 21.5406L10.13 28.8906H11.64Z" fill="white"/>
<path d="M24.05 31.4006C23.71 31.4006 23.39 31.2806 23.13 31.0606L21.6 29.7506L18.89 34.4106C18.3 35.4306 16.79 35.3206 16.35 34.2206L14.24 28.8906L12.85 30.7306L10.15 31.1806L10.22 39.0406L33.47 38.8906V31.4206H24.05V31.4006Z" fill="#D89B86"/>
<path d="M36 12.4503H32.05V2.3403C32.05 1.0903 31.03 0.0703125 29.78 0.0703125C28.53 0.0703125 27.51 1.0903 27.51 2.3403V3.52029H16.17V2.3403C16.17 1.0903 15.15 0.0703125 13.9 0.0703125C12.65 0.0703125 11.63 1.0903 11.63 2.3403V12.4503H7.67001C3.81001 12.4503 0.660004 15.5903 0.660004 19.4603V47.7803C0.660004 51.6403 3.80001 54.7903 7.67001 54.7903H11.63V64.9003C11.63 66.1503 12.65 67.1703 13.9 67.1703C15.15 67.1703 16.17 66.1503 16.17 64.9003V63.7203H27.51V64.9003C27.51 66.1503 28.53 67.1703 29.78 67.1703C31.03 67.1703 32.05 66.1503 32.05 64.9003V54.7903H36C39.86 54.7903 43.01 51.6503 43.01 47.7803V19.4603C43.01 15.6003 39.87 12.4503 36 12.4503ZM16.17 8.05029H27.51V12.4503H16.17V8.05029ZM27.51 59.1803H16.17V54.7803H27.51V59.1803ZM38.47 47.7703C38.47 49.1303 37.36 50.2403 36 50.2403H7.67001C6.31001 50.2403 5.20001 49.1303 5.20001 47.7703V19.4503C5.20001 18.0903 6.31001 16.9803 7.67001 16.9803H36C37.36 16.9803 38.47 18.0903 38.47 19.4503V47.7703Z" fill="#222E4C"/>
<path d="M16.17 42.9102C14.7 42.9102 13.51 44.1002 13.51 45.5702C13.51 47.0402 14.7 48.2302 16.17 48.2302C17.64 48.2302 18.83 47.0402 18.83 45.5702C18.83 44.1002 17.64 42.9102 16.17 42.9102Z" fill="#222E4C"/>
<path d="M27.51 42.9102C26.04 42.9102 24.85 44.1002 24.85 45.5702C24.85 47.0402 26.04 48.2302 27.51 48.2302C28.98 48.2302 30.17 47.0402 30.17 45.5702C30.17 44.1002 28.98 42.9102 27.51 42.9102Z" fill="#222E4C"/>
<path d="M33.62 19.2695H10.06C8.89 19.2695 7.95001 20.2195 7.95001 21.3795V39.0096C7.95001 40.1796 8.9 41.1295 10.06 41.1295H33.62C34.79 41.1295 35.73 40.1796 35.73 39.0096V21.3795C35.73 20.2095 34.78 19.2695 33.62 19.2695ZM33.47 29.1295H24.37L22.04 27.1396C21.78 26.9196 21.44 26.8295 21.11 26.8795C20.78 26.9395 20.49 27.1395 20.32 27.4295L17.81 31.7395L15.46 25.7795C15.3 25.3695 14.91 25.0895 14.47 25.0695C14.45 25.0695 14.42 25.0695 14.4 25.0695C13.99 25.0695 13.6 25.2995 13.4 25.6595L11.64 28.8995H10.19L10.06 21.5495L33.46 21.3995V29.1396L33.47 29.1295ZM10.22 39.0195L10.15 31.1595H12.32C12.74 31.1595 13.12 30.9295 13.32 30.5695L14.24 28.8795L16.56 34.7495C16.72 35.1495 17.1 35.4295 17.53 35.4595C17.56 35.4595 17.59 35.4595 17.62 35.4595C18.02 35.4595 18.4 35.2495 18.6 34.8995L21.6 29.7395L23.21 31.1195C23.41 31.2995 23.68 31.3896 23.95 31.3896H33.47V38.8595L10.22 39.0096V39.0195Z" fill="#222E4C"/>
</svg>
