<svg width="81" height="59" viewBox="0 0 81 59" fill="none" xmlns="http://www.w3.org/2000/svg">
<path d="M54.54 40.8206C54.31 40.8406 54.08 40.8906 53.84 40.8906C52.19 40.8906 50.61 40.2706 49.39 39.1606L44.88 35.0306H40.06C38.1 35.0306 36.25 34.1706 34.99 32.6606L32.48 29.6406L30.69 32.2106C29.45 33.9806 27.43 35.0306 25.28 35.0306H19.8C26.98 42.1206 36.42 50.0106 40.14 53.0706C42.89 50.8406 48.75 46.0006 54.53 40.8206H54.54Z" fill="#D89B86"/>
<path d="M55.37 6C49.91 6 45 9.03999 42.56 13.93C41.69 15.67 38.84 15.67 37.98 13.93C35.54 9.03999 30.63 6 25.17 6C17.28 6 10.87 12.42 10.87 20.3C10.87 20.85 10.9 21.35 10.94 21.84H21.85L26.62 15C27.78 13.32 29.7 12.27 31.74 12.18H31.76C33.99 12.18 35.84 13.04 37.09 14.55L43.15 21.84H47.44C49.09 21.84 50.67 22.46 51.89 23.57L53.5 25.05L54.47 24.02C55.71 22.71 57.46 21.95 59.27 21.95H69.58C69.63 21.43 69.67 20.88 69.67 20.3C69.67 12.42 63.26 6 55.37 6Z" fill="#6D9AC2"/>
<path d="M62.12 35.141L58.64 38.831C57.56 39.971 56.09 40.661 54.54 40.831C48.76 46.011 42.9 50.851 40.15 53.081C36.43 50.021 26.99 42.121 19.81 35.041H12.67C21.8 44.871 37.73 57.731 38.54 58.381C39.01 58.761 39.58 58.951 40.15 58.951C40.72 58.951 41.28 58.761 41.75 58.391C42.56 57.741 58.72 44.831 67.85 35.151H62.13L62.12 35.141Z" fill="#222E4C"/>
<path d="M10.93 21.8506C10.89 21.3606 10.86 20.8606 10.86 20.3106C10.86 12.4306 17.27 6.01062 25.16 6.01062C30.62 6.01062 35.53 9.05061 37.97 13.9406C38.84 15.6806 41.68 15.6806 42.55 13.9406C44.99 9.05061 49.9 6.01062 55.36 6.01062C63.25 6.01062 69.66 12.4306 69.66 20.3106C69.66 20.8906 69.62 21.4406 69.57 21.9606H74.68C74.72 21.4106 74.77 20.8906 74.77 20.3106C74.77 9.60061 66.06 0.890625 55.35 0.890625C49.37 0.890625 43.89 3.5706 40.25 8.0806C36.61 3.5606 31.12 0.890625 25.15 0.890625C14.44 0.890625 5.73001 9.60061 5.73001 20.3106C5.73001 20.8606 5.78 21.3406 5.81 21.8506H10.92H10.93Z" fill="#222E4C"/>
<path d="M77.73 25.9906H59.27C58.56 25.9906 57.89 26.2806 57.41 26.7906L53.71 30.7106L49.16 26.5506C48.69 26.1206 48.07 25.8806 47.43 25.8806H41.25L33.98 17.1406C33.47 16.5306 32.69 16.1906 31.9 16.2206C31.1 16.2506 30.37 16.6606 29.91 17.3206L23.94 25.8906H2.79999C1.38999 25.8906 0.23999 27.0406 0.23999 28.4506C0.23999 29.8606 1.38999 31.0106 2.79999 31.0106H25.28C26.12 31.0106 26.9 30.6006 27.38 29.9106L32.19 23.0006L38.07 30.0806C38.56 30.6706 39.28 31.0006 40.04 31.0006H46.43L52.1 36.1906C52.59 36.6406 53.21 36.8606 53.83 36.8606C54.51 36.8606 55.19 36.5906 55.69 36.0606L60.36 31.1106H77.71C79.12 31.1106 80.27 29.9606 80.27 28.5506C80.27 27.1406 79.12 25.9906 77.71 25.9906H77.73Z" fill="#222E4C"/>
</svg>
