<svg width="68" height="68" viewBox="0 0 68 68" fill="none" xmlns="http://www.w3.org/2000/svg">
<path d="M39.18 8.42905L37.11 10.4991C38.86 10.0791 40.8 10.5191 42.11 11.8191C43.11 12.8091 43.65 14.1391 43.65 15.5391C43.65 16.9391 43.1 18.2691 42.11 19.2591C41.12 20.2491 39.8 20.799 38.39 20.799C36.98 20.799 35.66 20.2491 34.67 19.2591C33.68 18.2591 33.13 16.9391 33.13 15.5391C33.13 15.1191 33.19 14.7191 33.29 14.3191L25.67 21.9391C27.42 21.5291 29.37 21.9491 30.68 23.2591C32.73 25.3091 32.73 28.659 30.68 30.709C29.68 31.699 28.36 32.2491 26.96 32.2491C25.56 32.2491 24.23 31.699 23.24 30.709C22.25 29.719 21.7 28.389 21.7 26.989C21.7 26.569 21.76 26.169 21.86 25.769L14.24 33.3891C15.99 32.9691 17.94 33.3991 19.25 34.7191C20.24 35.7091 20.79 37.0291 20.79 38.4391C20.79 39.8491 20.24 41.1691 19.25 42.1691C18.26 43.1591 16.93 43.709 15.53 43.709C14.13 43.709 12.8 43.1591 11.81 42.1691C10.47 40.8291 10.02 38.9391 10.43 37.2191L6.72001 40.929C6.36001 41.289 6.1 41.689 5.88 42.119L26.42 62.6591C27.41 63.6491 29.15 63.6391 30.14 62.6591L62.64 30.1591C63.67 29.1291 63.67 27.4691 62.64 26.4391L43.31 7.10904C43.07 7.06904 42.84 7.03906 42.59 7.03906C41.33 7.03906 40.11 7.53906 39.22 8.43906L39.18 8.42905ZM33.53 56.4791C32.54 57.4691 31.21 58.019 29.81 58.019C28.41 58.019 27.08 57.4691 26.09 56.4791C24.04 54.4291 24.04 51.0891 26.09 49.0291C28.08 47.0391 31.55 47.0391 33.54 49.0291C35.59 51.0791 35.59 54.4191 33.54 56.4791H33.53ZM44.98 45.0291C43.99 46.0291 42.66 46.5691 41.26 46.5691C39.86 46.5691 38.53 46.0191 37.54 45.0291C35.49 42.9791 35.49 39.629 37.54 37.579C39.53 35.589 43 35.589 44.99 37.579C45.98 38.569 46.53 39.899 46.53 41.299C46.53 42.699 45.98 44.029 44.99 45.019L44.98 45.0291ZM56.43 26.1291C57.43 27.1191 57.97 28.4491 57.97 29.8491C57.97 31.2491 57.42 32.5791 56.43 33.5691C55.44 34.5691 54.11 35.109 52.71 35.109C51.31 35.109 49.98 34.5591 48.99 33.5691C46.94 31.5191 46.94 28.179 48.99 26.119C50.98 24.129 54.45 24.129 56.44 26.119L56.43 26.1291ZM51.05 17.1891C51.49 17.6291 51.49 18.339 51.05 18.769L18.73 51.0891C18.51 51.3091 18.22 51.4191 17.94 51.4191C17.66 51.4191 17.37 51.3091 17.15 51.0891C16.71 50.6491 16.71 49.9391 17.15 49.5091L49.47 17.1891C49.91 16.7491 50.62 16.7491 51.05 17.1891Z" fill="#6D9AC2"/>
<path d="M41.1 12.829C40.38 12.109 39.41 11.709 38.38 11.709C37.35 11.709 36.39 12.109 35.66 12.829C34.93 13.559 34.53 14.519 34.53 15.549C34.53 16.579 34.93 17.539 35.66 18.269C37.11 19.719 39.64 19.719 41.09 18.269C41.82 17.539 42.22 16.579 42.22 15.549C42.22 14.519 41.82 13.559 41.09 12.829H41.1Z" fill="#D89B86"/>
<path d="M29.66 24.2784C28.93 23.5484 27.97 23.1484 26.94 23.1484C25.91 23.1484 24.95 23.5484 24.22 24.2784C23.49 25.0084 23.09 25.9684 23.09 26.9984C23.09 28.0284 23.49 28.9884 24.22 29.7184C25.67 31.1684 28.2 31.1684 29.65 29.7184C31.15 28.2184 31.15 25.7885 29.65 24.2885L29.66 24.2784Z" fill="#D89B86"/>
<path d="M12.77 41.1596C14.22 42.6096 16.75 42.6096 18.2 41.1596C18.93 40.4296 19.33 39.4696 19.33 38.4396C19.33 37.4096 18.93 36.4496 18.2 35.7296C17.47 34.9996 16.51 34.5996 15.48 34.5996C14.45 34.5996 13.49 34.9996 12.76 35.7296C11.26 37.2296 11.26 39.6596 12.76 41.1596H12.77Z" fill="#D89B86"/>
<path d="M49.98 32.57C51.43 34.02 53.96 34.02 55.41 32.57C56.14 31.84 56.54 30.88 56.54 29.85C56.54 28.82 56.14 27.86 55.41 27.13C54.68 26.4 53.72 26 52.69 26C51.66 26 50.7 26.4 49.97 27.13C48.47 28.63 48.47 31.07 49.97 32.56L49.98 32.57Z" fill="#D89B86"/>
<path d="M45.09 41.299C45.09 40.269 44.69 39.309 43.96 38.579C43.23 37.859 42.27 37.459 41.24 37.459C40.21 37.459 39.25 37.859 38.52 38.579C37.02 40.079 37.02 42.519 38.52 44.009C39.97 45.459 42.5 45.459 43.95 44.009C44.68 43.279 45.08 42.319 45.08 41.289L45.09 41.299Z" fill="#D89B86"/>
<path d="M32.52 50.0382C31.79 49.3082 30.83 48.9082 29.8 48.9082C28.77 48.9082 27.81 49.3082 27.08 50.0382C25.58 51.5382 25.58 53.9782 27.08 55.4682C28.53 56.9182 31.06 56.9182 32.51 55.4682C34.01 53.9682 34.01 51.5282 32.51 50.0382H32.52Z" fill="#D89B86"/>
<path d="M65.62 23.42L44.83 2.63C42.24 0.04 37.66 0.04 35.07 2.63L2.56999 35.13C-0.12001 37.82 -0.12001 42.2 2.56999 44.9L23.36 65.69C24.66 66.99 26.4 67.71 28.24 67.71C30.08 67.71 31.84 66.97 33.12 65.69L65.62 33.19C68.31 30.5 68.31 26.12 65.62 23.43V23.42ZM62.6 30.16L30.1 62.66C29.11 63.64 27.36 63.65 26.38 62.66L5.58999 41.87C4.55999 40.84 4.55999 39.17 5.58999 38.15L38.09 5.64999C38.58 5.15999 39.26 4.88 39.95 4.88C40.64 4.88 41.31 5.14999 41.81 5.64999L62.6 26.44C63.63 27.47 63.63 29.13 62.6 30.16Z" fill="#222E4C"/>
<path d="M38.39 20.8104C39.8 20.8104 41.12 20.2604 42.11 19.2704C43.11 18.2804 43.65 16.9504 43.65 15.5504C43.65 14.1504 43.1 12.8204 42.11 11.8304C40.12 9.84039 36.65 9.84039 34.66 11.8304C33.67 12.8304 33.12 14.1504 33.12 15.5504C33.12 16.9504 33.67 18.2804 34.66 19.2704C35.65 20.2604 36.98 20.8104 38.38 20.8104H38.39ZM35.67 12.8304C36.4 12.1104 37.36 11.7104 38.39 11.7104C39.42 11.7104 40.38 12.1104 41.11 12.8304C41.84 13.5604 42.24 14.5204 42.24 15.5504C42.24 16.5804 41.84 17.5404 41.11 18.2704C39.66 19.7204 37.13 19.7204 35.68 18.2704C34.95 17.5404 34.55 16.5804 34.55 15.5504C34.55 14.5204 34.95 13.5604 35.68 12.8304H35.67Z" fill="#222E4C"/>
<path d="M26.94 32.2599C28.35 32.2599 29.67 31.7099 30.66 30.7199C32.71 28.6699 32.71 25.3298 30.66 23.2698C28.67 21.2798 25.2 21.2798 23.21 23.2698C22.22 24.2598 21.67 25.5898 21.67 26.9898C21.67 28.3898 22.22 29.7198 23.21 30.7098C24.2 31.6998 25.53 32.2499 26.93 32.2499L26.94 32.2599ZM24.22 24.2799C24.95 23.5499 25.91 23.1498 26.94 23.1498C27.97 23.1498 28.93 23.5499 29.66 24.2799C31.16 25.7799 31.16 28.2198 29.66 29.7098C28.21 31.1598 25.68 31.1598 24.23 29.7098C23.5 28.9798 23.1 28.0198 23.1 26.9898C23.1 25.9598 23.5 24.9998 24.23 24.2698L24.22 24.2799Z" fill="#222E4C"/>
<path d="M20.76 38.4391C20.76 37.0291 20.21 35.7091 19.22 34.7191C17.23 32.7291 13.76 32.7291 11.77 34.7191C9.71998 36.7691 9.71998 40.1091 11.77 42.1691C12.76 43.1591 14.09 43.7091 15.49 43.7091C16.89 43.7091 18.22 43.1591 19.21 42.1691C20.21 41.1691 20.75 39.8491 20.75 38.4391H20.76ZM12.78 41.1591C11.28 39.6591 11.28 37.2191 12.78 35.7291C13.51 34.9991 14.47 34.5991 15.5 34.5991C16.53 34.5991 17.49 34.9991 18.22 35.7291C18.95 36.4491 19.35 37.4191 19.35 38.4391C19.35 39.4691 18.95 40.4291 18.22 41.1591C16.77 42.6091 14.24 42.6091 12.79 41.1591H12.78Z" fill="#222E4C"/>
<path d="M48.98 26.1309C46.93 28.1809 46.93 31.5209 48.98 33.5809C49.97 34.5809 51.3 35.1209 52.7 35.1209C54.1 35.1209 55.43 34.5709 56.42 33.5809C57.42 32.5909 57.96 31.2609 57.96 29.8609C57.96 28.4609 57.41 27.1309 56.42 26.1409C54.43 24.1509 50.96 24.1509 48.97 26.1409L48.98 26.1309ZM55.42 32.5709C53.97 34.0209 51.44 34.0209 49.99 32.5709C48.49 31.0709 48.49 28.6409 49.99 27.1409C50.72 26.4109 51.68 26.0109 52.71 26.0109C53.74 26.0109 54.7 26.4109 55.43 27.1409C56.16 27.8709 56.56 28.8309 56.56 29.8609C56.56 30.8909 56.16 31.8509 55.43 32.5809L55.42 32.5709Z" fill="#222E4C"/>
<path d="M37.53 37.5801C35.48 39.6301 35.48 42.9702 37.53 45.0302C38.52 46.0302 39.85 46.5702 41.25 46.5702C42.65 46.5702 43.98 46.0202 44.97 45.0302C45.96 44.0402 46.51 42.7102 46.51 41.3102C46.51 39.9102 45.96 38.5802 44.97 37.5902C42.98 35.6002 39.51 35.6002 37.52 37.5902L37.53 37.5801ZM43.97 44.0201C42.52 45.4701 39.99 45.4701 38.54 44.0201C37.04 42.5201 37.04 40.0802 38.54 38.5902C39.27 37.8702 40.23 37.4702 41.26 37.4702C42.29 37.4702 43.25 37.8702 43.98 38.5902C44.71 39.3202 45.11 40.2802 45.11 41.3102C45.11 42.3402 44.71 43.3002 43.98 44.0302L43.97 44.0201Z" fill="#222E4C"/>
<path d="M26.08 49.0296C24.03 51.0796 24.03 54.4296 26.08 56.4796C27.07 57.4696 28.4 58.0196 29.8 58.0196C31.2 58.0196 32.53 57.4696 33.52 56.4796C35.57 54.4296 35.57 51.0896 33.52 49.0296C31.53 47.0396 28.06 47.0396 26.07 49.0296H26.08ZM32.52 55.4696C31.07 56.9196 28.54 56.9196 27.09 55.4696C25.59 53.9696 25.59 51.5296 27.09 50.0396C27.82 49.3096 28.78 48.9096 29.81 48.9096C30.84 48.9096 31.8 49.3096 32.53 50.0396C34.03 51.5396 34.03 53.9796 32.53 55.4696H32.52Z" fill="#222E4C"/>
<path d="M51.05 17.1894C50.61 16.7494 49.9 16.7494 49.47 17.1894L17.15 49.5094C16.71 49.9494 16.71 50.6594 17.15 51.0894C17.37 51.3094 17.66 51.4194 17.94 51.4194C18.22 51.4194 18.51 51.3094 18.73 51.0894L51.05 18.7694C51.49 18.3294 51.49 17.6194 51.05 17.1894Z" fill="#222E4C"/>
</svg>
