<svg width="60" height="62" viewBox="0 0 60 62" fill="none" xmlns="http://www.w3.org/2000/svg">
<path d="M6.62 56.0686C6.62 56.5686 6.74 57.0386 6.94 57.4586H54.62C55.39 57.4586 56.01 56.8386 56.01 56.0686V22.5586H6.62V56.0686ZM20.76 34.1586H25.48V29.4486C25.48 28.4686 26.28 27.6686 27.26 27.6686H33.31C34.29 27.6686 35.09 28.4686 35.09 29.4486V34.1586H39.81C40.79 34.1586 41.59 34.9586 41.59 35.9386V41.9886C41.59 42.9686 40.79 43.7686 39.81 43.7686H35.09V48.4886C35.09 49.4686 34.29 50.2686 33.31 50.2686H27.26C26.28 50.2686 25.48 49.4686 25.48 48.4886V43.7686H20.76C19.78 43.7686 18.98 42.9686 18.98 41.9886V35.9386C18.98 34.9586 19.78 34.1586 20.76 34.1586Z" fill="#6D9AC2"/>
<path d="M20.76 42.4885H26.12C26.48 42.4885 26.76 42.7785 26.76 43.1285V48.4885C26.76 48.7585 26.98 48.9785 27.25 48.9785H33.3C33.57 48.9785 33.79 48.7585 33.79 48.4885V43.1285C33.79 42.7685 34.08 42.4885 34.43 42.4885H39.79C40.06 42.4885 40.28 42.2685 40.28 41.9985V35.9485C40.28 35.6785 40.06 35.4585 39.79 35.4585H34.43C34.08 35.4585 33.79 35.1685 33.79 34.8185V29.4685C33.79 29.1985 33.57 28.9785 33.3 28.9785H27.25C26.98 28.9785 26.76 29.1985 26.76 29.4685V34.8185C26.76 35.1785 26.47 35.4585 26.12 35.4585H20.76C20.49 35.4585 20.27 35.6785 20.27 35.9485V41.9985C20.27 42.2685 20.49 42.4885 20.76 42.4885Z" fill="#D89B86"/>
<path d="M11.48 12.0786C11.48 13.9786 13.03 15.5386 14.94 15.5386C16.85 15.5386 18.4 13.9886 18.4 12.0786V7.01859C18.4 5.10859 16.85 3.55859 14.94 3.55859C13.03 3.55859 11.48 5.10859 11.48 7.01859V12.0786Z" fill="#D89B86"/>
<path d="M42.17 12.0786C42.17 13.9786 43.72 15.5386 45.63 15.5386C47.54 15.5386 49.09 13.9886 49.09 12.0786V7.01859C49.09 5.10859 47.54 3.55859 45.63 3.55859C43.72 3.55859 42.17 5.10859 42.17 7.01859V12.0786Z" fill="#D89B86"/>
<path d="M39.8 34.1697H35.08V29.4597C35.08 28.4797 34.28 27.6797 33.3 27.6797H27.25C26.27 27.6797 25.47 28.4797 25.47 29.4597V34.1697H20.75C19.77 34.1697 18.97 34.9697 18.97 35.9497V41.9997C18.97 42.9797 19.77 43.7797 20.75 43.7797H25.47V48.4997C25.47 49.4797 26.27 50.2797 27.25 50.2797H33.3C34.28 50.2797 35.08 49.4797 35.08 48.4997V43.7797H39.8C40.78 43.7797 41.58 42.9797 41.58 41.9997V35.9497C41.58 34.9697 40.78 34.1697 39.8 34.1697ZM40.29 41.9997C40.29 42.2697 40.07 42.4897 39.8 42.4897H34.44C34.09 42.4897 33.8 42.7797 33.8 43.1297V48.4897C33.8 48.7597 33.58 48.9797 33.31 48.9797H27.26C26.99 48.9797 26.77 48.7597 26.77 48.4897V43.1297C26.77 42.7697 26.48 42.4897 26.13 42.4897H20.77C20.5 42.4897 20.28 42.2697 20.28 41.9997V35.9497C20.28 35.6797 20.5 35.4597 20.77 35.4597H26.13C26.49 35.4597 26.77 35.1697 26.77 34.8197V29.4697C26.77 29.1997 26.99 28.9797 27.26 28.9797H33.31C33.58 28.9797 33.8 29.1997 33.8 29.4697V34.8197C33.8 35.1797 34.09 35.4597 34.44 35.4597H39.8C40.07 35.4597 40.29 35.6797 40.29 35.9497V41.9997Z" fill="#222E4C"/>
<path d="M54.63 8.58922H51.96V7.01922C51.96 3.52922 49.12 0.699219 45.64 0.699219C42.16 0.699219 39.32 3.53922 39.32 7.01922V8.58922H21.28V7.01922C21.28 3.52922 18.44 0.699219 14.96 0.699219C11.48 0.699219 8.64001 3.53922 8.64001 7.01922V8.58922H5.96997C3.12997 8.58922 0.820007 10.8992 0.820007 13.7392V56.0692C0.820007 58.9092 3.12997 61.2192 5.96997 61.2192H54.66C57.5 61.2192 59.81 58.9092 59.81 56.0692V13.7392C59.81 10.8992 57.5 8.58922 54.66 8.58922H54.63ZM43.07 7.01922C43.07 5.60922 44.22 4.45922 45.63 4.45922C47.04 4.45922 48.19 5.60922 48.19 7.01922V12.0792C48.19 13.4892 47.04 14.6392 45.63 14.6392C44.22 14.6392 43.07 13.4892 43.07 12.0792V7.01922ZM12.38 7.01922C12.38 5.60922 13.53 4.45922 14.94 4.45922C16.35 4.45922 17.5 5.60922 17.5 7.01922V12.0792C17.5 13.4892 16.35 14.6392 14.94 14.6392C13.53 14.6392 12.38 13.4892 12.38 12.0792V7.01922ZM54.63 57.4592H5.94C5.17 57.4592 4.54999 56.8392 4.54999 56.0692V22.5592H56.02V56.0692C56.02 56.8392 55.4 57.4592 54.63 57.4592Z" fill="#222E4C"/>
</svg>
