<svg width="51" height="62" viewBox="0 0 51 62" fill="none" xmlns="http://www.w3.org/2000/svg">
<path d="M48.61 55.4193C48.61 57.1993 47.08 59.4093 45.32 59.4093H6.11002C4.34002 59.4093 2.76001 57.1993 2.76001 55.4193V19.0993C2.76001 15.4593 5.84002 13.2793 9.46002 13.2793H41.98C45.59 13.2793 48.62 15.4593 48.62 19.0993V55.4193H48.61Z" fill="#D89B86"/>
<path d="M43.26 41.9191C43.26 44.7891 40.95 47.1091 38.1 47.1091H13.26C10.41 47.1091 8.11002 44.7891 8.11002 41.9191V32.3091C8.11002 29.4491 10.42 27.1191 13.26 27.1191H38.1C40.95 27.1191 43.26 29.4391 43.26 32.3091V41.9191Z" fill="#6D9AC2"/>
<path d="M42.31 11.0097V9.68969C42.31 4.38969 38.53 0.679688 33.13 0.679688H18.06C12.68 0.679688 9.06001 4.29969 9.06001 9.68969V11.0197C4.05001 11.1897 0.450012 14.5297 0.450012 19.1097V55.4197C0.450012 58.3297 2.92002 61.7097 6.11002 61.7097H45.32C48.47 61.7097 50.92 58.3297 50.92 55.4197V19.0997C50.92 14.4997 47.32 11.1497 42.31 10.9997V11.0097ZM18.06 4.87969H33.13C36.25 4.87969 38.11 6.67969 38.11 9.67969V10.9797H13.27V9.67969C13.27 6.62969 15.02 4.87969 18.06 4.87969ZM46.31 55.4197C46.31 56.1397 45.63 57.0197 45.31 57.0997H6.13002C5.77002 57.0297 5.06001 56.0997 5.06001 55.4197V19.0997C5.06001 16.6697 7.27001 15.5897 9.45001 15.5897H41.97C44.13 15.5897 46.3 16.6797 46.3 19.0997V55.4197H46.31Z" fill="#222E4C"/>
<path d="M38.11 26.3496H13.27C10 26.3496 7.35004 29.0196 7.35004 32.3096V41.9196C7.35004 45.2096 10.01 47.8796 13.27 47.8796H38.11C41.38 47.8796 44.03 45.2096 44.03 41.9196V32.3096C44.03 29.0196 41.37 26.3496 38.11 26.3496ZM42.5 41.9196C42.5 44.3596 40.53 46.3396 38.11 46.3396H13.27C10.85 46.3396 8.88004 44.3596 8.88004 41.9196V32.3096C8.88004 29.8696 10.85 27.8896 13.27 27.8896H38.11C40.53 27.8896 42.5 29.8696 42.5 32.3096V41.9196Z" fill="#222E4C"/>
<path d="M35.04 31.7402H16.34C15.49 31.7402 14.8 32.4302 14.8 33.2802C14.8 34.1302 15.49 34.8202 16.34 34.8202H35.04C35.89 34.8202 36.58 34.1302 36.58 33.2802C36.58 32.4302 35.89 31.7402 35.04 31.7402Z" fill="#222E4C"/>
<path d="M35.04 39.4199H16.34C15.49 39.4199 14.8 40.1099 14.8 40.9599C14.8 41.8099 15.49 42.4999 16.34 42.4999H35.04C35.89 42.4999 36.58 41.8099 36.58 40.9599C36.58 40.1099 35.89 39.4199 35.04 39.4199Z" fill="#222E4C"/>
</svg>
