<svg width="72" height="46" viewBox="0 0 72 46" fill="none" xmlns="http://www.w3.org/2000/svg">
<path d="M61.18 42.8404C62.6 42.8404 63.83 41.8404 64.1 40.4404L69.42 13.8604C69.7 12.4504 68.94 11.0404 67.61 10.5104L59.22 7.13039C44.57 1.24039 28.22 1.24039 13.57 7.13039L5.17999 10.5104C3.84999 11.0404 3.09 12.4504 3.37 13.8604L8.69 40.4404C8.97 41.8304 10.19 42.8404 11.61 42.8404H61.19H61.18Z" fill="#6D9AC2"/>
<path d="M47.79 18.5688H41.37C40.94 18.5688 40.6 18.2188 40.6 17.7988V11.3888C40.6 11.0688 40.34 10.7988 40.01 10.7988H32.77C32.45 10.7988 32.18 11.0588 32.18 11.3888V17.7988C32.18 18.2288 31.83 18.5688 31.41 18.5688H24.99C24.67 18.5688 24.4 18.8288 24.4 19.1588V26.3988C24.4 26.7188 24.66 26.9888 24.99 26.9888H31.41C31.84 26.9888 32.18 27.3388 32.18 27.7588V34.1788C32.18 34.4988 32.44 34.7688 32.77 34.7688H40.01C40.33 34.7688 40.6 34.5088 40.6 34.1788V27.7588C40.6 27.3288 40.95 26.9888 41.37 26.9888H47.79C48.11 26.9888 48.38 26.7288 48.38 26.3988V19.1588C48.38 18.8388 48.12 18.5688 47.79 18.5688Z" fill="#D89B86"/>
<path d="M68.47 8.36969L60.08 4.98969C44.95 -1.09031 27.83 -1.09031 12.7 4.98969L4.30998 8.36969C1.94998 9.31969 0.599986 11.8197 1.09999 14.3197L6.41998 40.8997C6.90998 43.3697 9.09998 45.1597 11.61 45.1597H61.19C63.7 45.1597 65.89 43.3697 66.38 40.8997L71.7 14.3197C72.2 11.8197 70.85 9.31969 68.48 8.36969H68.47ZM61.84 39.9897C61.78 40.2997 61.5 40.5297 61.18 40.5297H11.6C11.28 40.5297 11 40.2997 10.94 39.9897L5.62999 13.4197C5.56999 13.0997 5.73998 12.7797 6.02998 12.6597L14.42 9.27969C21.43 6.45969 28.82 5.02969 36.38 5.02969C43.94 5.02969 51.33 6.45969 58.34 9.27969L66.73 12.6597C67.03 12.7797 67.2 13.0997 67.14 13.4097L61.82 39.9897H61.84Z" fill="#222E4C"/>
<path d="M47.79 17.0298H42.14V11.3898C42.14 10.2198 41.18 9.25977 40.01 9.25977H32.77C31.6 9.25977 30.64 10.2198 30.64 11.3898V17.0298H25C23.83 17.0298 22.87 17.9898 22.87 19.1598V26.3998C22.87 27.5698 23.83 28.5298 25 28.5298H30.64V34.1798C30.64 35.3498 31.6 36.3098 32.77 36.3098H40.01C41.18 36.3098 42.14 35.3498 42.14 34.1798V28.5298H47.79C48.96 28.5298 49.92 27.5698 49.92 26.3998V19.1598C49.92 17.9898 48.96 17.0298 47.79 17.0298ZM48.38 26.3998C48.38 26.7198 48.12 26.9898 47.79 26.9898H41.37C40.94 26.9898 40.6 27.3398 40.6 27.7598V34.1798C40.6 34.4998 40.34 34.7698 40.01 34.7698H32.77C32.45 34.7698 32.18 34.5098 32.18 34.1798V27.7598C32.18 27.3298 31.83 26.9898 31.41 26.9898H24.99C24.67 26.9898 24.4 26.7298 24.4 26.3998V19.1598C24.4 18.8398 24.66 18.5698 24.99 18.5698H31.41C31.84 18.5698 32.18 18.2198 32.18 17.7998V11.3898C32.18 11.0698 32.44 10.7998 32.77 10.7998H40.01C40.33 10.7998 40.6 11.0598 40.6 11.3898V17.7998C40.6 18.2298 40.95 18.5698 41.37 18.5698H47.79C48.11 18.5698 48.38 18.8298 48.38 19.1598V26.3998Z" fill="#222E4C"/>
</svg>
