<svg width="57" height="69" viewBox="0 0 57 69" fill="none" xmlns="http://www.w3.org/2000/svg">
<path d="M18.13 34.9287L4.91001 62.1487C4.74001 62.5087 4.76001 62.9187 4.97001 63.2487C5.18001 63.5787 5.55 63.7787 5.93 63.7787H51.29C51.68 63.7787 52.05 63.5787 52.25 63.2487C52.46 62.9087 52.48 62.4987 52.31 62.1487L39.09 34.9287V8.46875H18.19L18.11 34.9287H18.13ZM40.94 42.3488L50.01 61.1288C50.12 61.3488 50.1 61.5987 49.97 61.7987C49.84 61.9987 49.62 62.1288 49.38 62.1288H7.85001C7.61001 62.1288 7.39 62.0087 7.26 61.7987C7.13 61.5987 7.12001 61.3388 7.22001 61.1288L16.32 42.3488H40.93H40.94ZM20.44 35.6888C20.44 33.2288 22.44 31.2287 24.9 31.2287C27.36 31.2287 29.36 33.2288 29.36 35.6888C29.36 38.1488 27.36 40.1487 24.9 40.1487C22.44 40.1487 20.44 38.1488 20.44 35.6888ZM31.23 21.1087C33.07 21.1087 34.56 22.6088 34.56 24.4388C34.56 26.2688 33.07 27.7688 31.23 27.7688C29.39 27.7688 27.9 26.2688 27.9 24.4388C27.9 22.6088 29.4 21.1087 31.23 21.1087ZM24.35 10.1687C26.01 10.1687 27.35 11.5187 27.35 13.1687C27.35 14.8187 26 16.1787 24.35 16.1787C22.7 16.1787 21.34 14.8287 21.34 13.1687C21.34 11.5087 22.69 10.1687 24.35 10.1687Z" fill="#6D9AC2"/>
<path d="M48.17 60.6786L40.02 43.8086H17.23L9.06 60.6786H48.17Z" fill="#D89B86"/>
<path d="M24.89 38.6895C26.55 38.6895 27.89 37.3395 27.89 35.6895C27.89 34.0395 26.54 32.6895 24.89 32.6895C23.24 32.6895 21.89 34.0395 21.89 35.6895C21.89 37.3395 23.24 38.6895 24.89 38.6895Z" fill="#D89B86"/>
<path d="M31.22 26.3284C32.25 26.3284 33.1 25.4883 33.1 24.4483C33.1 23.4083 32.26 22.5684 31.22 22.5684C30.18 22.5684 29.34 23.4083 29.34 24.4483C29.34 25.4883 30.18 26.3284 31.22 26.3284Z" fill="#D89B86"/>
<path d="M24.35 14.7387C25.2 14.7387 25.9 14.0387 25.9 13.1887C25.9 12.3387 25.21 11.6387 24.35 11.6387C23.49 11.6387 22.8 12.3287 22.8 13.1887C22.8 14.0487 23.5 14.7387 24.35 14.7387Z" fill="#D89B86"/>
<path d="M56.25 60.2393L43.47 33.9193V9.1293C45.72 8.8393 47.46 6.9393 47.46 4.6093C47.46 2.0793 45.41 0.0292969 42.88 0.0292969H14.35C11.82 0.0292969 9.77001 2.0793 9.77001 4.6093C9.77001 6.9593 11.55 8.8793 13.84 9.1393L13.77 33.9193L0.99 60.2393C0.16 61.9593 0.260006 63.9393 1.27001 65.5593C2.28001 67.1793 4.02999 68.1393 5.92999 68.1393H51.29C53.2 68.1393 54.94 67.1793 55.95 65.5593C56.96 63.9393 57.07 61.9493 56.24 60.2393H56.25ZM52.27 63.2493C52.06 63.5793 51.69 63.7793 51.31 63.7793H5.95C5.56 63.7793 5.19001 63.5793 4.99001 63.2493C4.78001 62.9093 4.75999 62.4993 4.92999 62.1493L18.15 34.9293L18.23 9.1993H39.13V34.9293L52.35 62.1493C52.52 62.4993 52.5 62.9193 52.29 63.2493H52.27Z" fill="#222E4C"/>
<path d="M40.93 42.3496H16.32L7.21998 61.1296C7.11998 61.3496 7.12998 61.5996 7.25998 61.7996C7.38998 61.9996 7.60999 62.1296 7.84999 62.1296H49.38C49.62 62.1296 49.84 62.0096 49.97 61.7996C50.1 61.5996 50.11 61.3396 50.01 61.1296L40.94 42.3496H40.93ZM9.04999 60.6796L17.23 43.8096H40.02L48.17 60.6796H9.04999Z" fill="#222E4C"/>
<path d="M24.89 40.1485C27.35 40.1485 29.35 38.1485 29.35 35.6885C29.35 33.2285 27.35 31.2285 24.89 31.2285C22.43 31.2285 20.43 33.2285 20.43 35.6885C20.43 38.1485 22.43 40.1485 24.89 40.1485ZM24.89 32.6885C26.55 32.6885 27.89 34.0385 27.89 35.6885C27.89 37.3385 26.54 38.6885 24.89 38.6885C23.24 38.6885 21.89 37.3385 21.89 35.6885C21.89 34.0385 23.24 32.6885 24.89 32.6885Z" fill="#222E4C"/>
<path d="M31.22 27.7791C33.06 27.7791 34.55 26.2791 34.55 24.4491C34.55 22.6191 33.06 21.1191 31.22 21.1191C29.38 21.1191 27.89 22.6191 27.89 24.4491C27.89 26.2791 29.39 27.7791 31.22 27.7791ZM31.22 22.5692C32.25 22.5692 33.1 23.4091 33.1 24.4491C33.1 25.4891 32.26 26.3291 31.22 26.3291C30.18 26.3291 29.34 25.4891 29.34 24.4491C29.34 23.4091 30.18 22.5692 31.22 22.5692Z" fill="#222E4C"/>
<path d="M24.35 16.1897C26.01 16.1897 27.35 14.8397 27.35 13.1797C27.35 11.5197 26 10.1797 24.35 10.1797C22.7 10.1797 21.34 11.5297 21.34 13.1797C21.34 14.8297 22.69 16.1897 24.35 16.1897ZM24.35 11.6297C25.2 11.6297 25.9 12.3197 25.9 13.1797C25.9 14.0397 25.21 14.7297 24.35 14.7297C23.49 14.7297 22.8 14.0297 22.8 13.1797C22.8 12.3297 23.5 11.6297 24.35 11.6297Z" fill="#222E4C"/>
</svg>
