<svg width="63" height="64" viewBox="0 0 63 64" fill="none" xmlns="http://www.w3.org/2000/svg">
<path d="M39.54 32.1998C39.95 31.7998 40.6 31.7998 41.01 32.1998C41.41 32.6098 41.41 33.2598 41.01 33.6698L32.93 41.7397C32.73 41.9397 32.46 42.0398 32.2 42.0398C31.94 42.0398 31.67 41.9397 31.47 41.7397C31.07 41.3297 31.07 40.6797 31.47 40.2697L34.39 37.3498L24.02 26.9798L21.08 29.9198C20.55 30.4498 20.24 31.1797 20.24 31.9297C20.24 32.6797 20.54 33.3998 21.08 33.9398L45.63 58.4798C46.69 59.5398 48.58 59.5498 49.65 58.4798L57.73 50.3997C58.27 49.8597 58.56 49.1498 58.56 48.3898C58.56 47.6298 58.26 46.9198 57.73 46.3798L33.19 21.8398C32.65 21.2998 31.94 21.0098 31.18 21.0098C30.42 21.0098 29.71 21.3098 29.17 21.8398L26.23 24.7798L36.6 35.1497L39.55 32.1998H39.54ZM44.16 35.3898L56.44 47.6698C56.84 48.0798 56.84 48.7298 56.44 49.1398L48.37 57.2097C48.18 57.3997 47.91 57.5098 47.64 57.5098C47.37 57.5098 47.1 57.3997 46.91 57.2097L34.63 44.9297C34.23 44.5297 34.23 43.8697 34.63 43.4597L42.7 35.3798C43.09 34.9898 43.78 34.9898 44.17 35.3798L44.16 35.3898Z" fill="#6D9AC2"/>
<path d="M43.4268 37.6077L36.8213 44.2109L47.631 55.0245L54.2366 48.4213L43.4268 37.6077Z" fill="#D89B86"/>
<path d="M58.83 55.1492L60.65 53.3292C61.97 52.0092 62.7 50.2592 62.7 48.3892C62.7 46.5192 61.97 44.7692 60.65 43.4492L36.11 18.9092C33.47 16.2692 28.87 16.2692 26.23 18.9092L23.29 21.8492L14.35 12.9092C16.35 9.88923 16.02 5.76922 13.36 3.11922C10.42 0.17922 5.28999 0.18922 2.35999 3.11922C0.889985 4.58922 0.0799866 6.53922 0.0799866 8.61922C0.0799866 10.6992 0.889985 12.6492 2.35999 14.1192C3.82999 15.5892 5.77999 16.3992 7.85999 16.3992C9.40999 16.3992 10.89 15.9492 12.15 15.1092L21.09 24.0492L18.15 26.9892C16.85 28.2892 16.1 30.0892 16.1 31.9292C16.1 33.7692 16.82 35.5492 18.15 36.8692L42.7 61.4092C44 62.7092 45.8 63.4592 47.64 63.4592C49.48 63.4592 51.26 62.7292 52.58 61.4092L54.43 59.5592L56.97 62.1192C57.58 62.7292 58.37 63.0292 59.17 63.0292C59.97 63.0292 60.76 62.7292 61.37 62.1192C62.58 60.9092 62.58 58.9392 61.37 57.7192L58.85 55.1492H58.83ZM10.42 11.1892C9.05001 12.5592 6.66 12.5592 5.28 11.1892C4.59 10.4992 4.20999 9.58922 4.20999 8.61922C4.20999 7.64922 4.59 6.73921 5.28 6.04921C5.97 5.35921 6.88001 4.98922 7.85001 4.98922C8.82001 4.98922 9.73001 5.36921 10.42 6.04921C11.84 7.46921 11.84 9.77923 10.42 11.1892ZM49.64 58.4792C48.57 59.5492 46.68 59.5392 45.62 58.4792L21.07 33.9392C20.53 33.3992 20.23 32.6892 20.23 31.9292C20.23 31.1692 20.53 30.4492 21.07 29.9192L24.01 26.9792L34.38 37.3492L31.46 40.2692C31.06 40.6692 31.06 41.3292 31.46 41.7392C31.66 41.9392 31.93 42.0392 32.19 42.0392C32.45 42.0392 32.72 41.9392 32.92 41.7392L41 33.6692C41.4 33.2692 41.4 32.6092 41 32.1992C40.59 31.7992 39.94 31.7992 39.53 32.1992L36.58 35.1492L26.21 24.7792L29.15 21.8392C29.69 21.2992 30.4 21.0092 31.16 21.0092C31.92 21.0092 32.63 21.3092 33.17 21.8392L57.71 46.3792C58.25 46.9192 58.54 47.6292 58.54 48.3892C58.54 49.1492 58.24 49.8592 57.71 50.3992L49.63 58.4792H49.64Z" fill="#222E4C"/>
<path d="M44.17 35.3902C43.78 35.0002 43.09 35.0002 42.7 35.3902L34.63 43.4701C34.23 43.8801 34.23 44.5301 34.63 44.9401L46.91 57.2201C47.1 57.4101 47.37 57.5201 47.64 57.5201C47.91 57.5201 48.18 57.4101 48.37 57.2201L56.44 49.1501C56.84 48.7501 56.84 48.0901 56.44 47.6801L44.16 35.4001L44.17 35.3902ZM47.64 55.0102L36.83 44.2002L43.44 37.5901L54.25 48.4001L47.64 55.0102Z" fill="#222E4C"/>
</svg>
