<svg width="62" height="62" viewBox="0 0 62 62" fill="none" xmlns="http://www.w3.org/2000/svg">
<path d="M7.06 23.4613V21.5713C7.06 18.3013 9.71999 15.6413 12.99 15.6413H29.57C32.84 15.6413 35.5 18.3013 35.5 21.5713V23.4613H55.19C55.87 23.4613 56.52 23.6012 57.13 23.8112V14.5412C57.13 13.4712 56.26 12.6013 55.19 12.6013H33.5C32.4 12.6013 31.5 11.7113 31.5 10.6013V6.72125C31.5 5.65125 30.63 4.78125 29.56 4.78125H12.98C11.91 4.78125 11.04 5.65125 11.04 6.72125V10.6013C11.04 11.7013 10.15 12.6013 9.03998 12.6013H6.69C5.62 12.6013 4.75 13.4712 4.75 14.5412V23.8112C5.36 23.6012 6.01 23.4613 6.69 23.4613H7.03998H7.06Z" fill="#D89B86"/>
<path d="M57.14 57.1911V29.3811C57.14 28.3111 56.27 27.4411 55.2 27.4411H33.51C32.41 27.4411 31.51 26.5511 31.51 25.4411V21.5611C31.51 20.4911 30.64 19.6211 29.57 19.6211H12.99C11.92 19.6211 11.05 20.4911 11.05 21.5611V25.4411C11.05 26.5411 10.16 27.4411 9.04999 27.4411H6.70001C5.63001 27.4411 4.76001 28.3111 4.76001 29.3811V57.1911H57.13H57.14ZM19.1 42.4011C19.1 35.8611 24.42 30.5511 30.95 30.5511C37.48 30.5511 42.8 35.8711 42.8 42.4011C42.8 48.9311 37.48 54.2511 30.95 54.2511C24.42 54.2511 19.1 48.9311 19.1 42.4011Z" fill="#6D9AC2"/>
<path d="M30.96 52.261C36.4 52.261 40.82 47.841 40.82 42.401C40.82 36.961 36.4 32.541 30.96 32.541C25.52 32.541 21.1 36.961 21.1 42.401C21.1 47.841 25.52 52.261 30.96 52.261ZM25 46.411C23.84 46.411 22.89 45.461 22.89 44.301V40.511C22.89 39.351 23.84 38.401 25 38.401H26.95V36.451C26.95 35.291 27.9 34.341 29.07 34.341H32.85C34.01 34.341 34.96 35.291 34.96 36.451V38.401H36.91C38.07 38.401 39.02 39.351 39.02 40.511V44.301C39.02 45.461 38.07 46.411 36.91 46.411H34.96V48.361C34.96 49.521 34.01 50.471 32.85 50.471H29.07C27.9 50.471 26.95 49.521 26.95 48.361V46.411H25Z" fill="white"/>
<path d="M28.78 45.652V48.852L33.01 48.982C33.08 48.982 33.14 48.922 33.14 48.852V45.652C33.14 45.052 33.62 44.572 34.22 44.572H37.41L37.53 40.352L34.21 40.232C33.61 40.232 33.13 39.752 33.13 39.152V35.962L28.91 35.832L28.78 39.152C28.78 39.752 28.3 40.232 27.7 40.232H24.51L24.38 44.452L27.7 44.582C28.3 44.582 28.78 45.062 28.78 45.662V45.652Z" fill="#D89B86"/>
<path d="M55.2 8.61078H35.51V6.73077C35.51 3.46077 32.85 0.800781 29.58 0.800781H13C9.73 0.800781 7.07001 3.46077 7.07001 6.73077V8.61078H6.71997C3.44997 8.61078 0.789978 11.2708 0.789978 14.5408V58.0008C0.789978 59.7508 2.21997 61.1808 3.96997 61.1808H57.96C59.71 61.1808 61.14 59.7508 61.14 58.0008V14.5408C61.14 11.2708 58.48 8.61078 55.21 8.61078H55.2ZM4.77002 14.5408C4.77002 13.4708 5.64002 12.6008 6.71002 12.6008H9.06C10.16 12.6008 11.06 11.7108 11.06 10.6008V6.72078C11.06 5.65078 11.93 4.78078 13 4.78078H29.58C30.65 4.78078 31.52 5.65078 31.52 6.72078V10.6008C31.52 11.7008 32.41 12.6008 33.52 12.6008H55.21C56.28 12.6008 57.15 13.4708 57.15 14.5408V23.7808C56.99 23.7208 56.82 23.7008 56.66 23.6508C56.55 23.6208 56.44 23.5808 56.32 23.5608C55.96 23.4908 55.59 23.4508 55.21 23.4508H35.52V21.5608C35.52 18.2908 32.86 15.6308 29.59 15.6308H13.01C9.74001 15.6308 7.08002 18.2908 7.08002 21.5608V23.4508H6.72998C6.34998 23.4508 5.98 23.4908 5.62 23.5608C5.51 23.5808 5.40003 23.6208 5.28003 23.6508C5.11003 23.6908 4.94003 23.7208 4.78003 23.7808V14.5408H4.77002ZM57.14 57.1908H4.77002V29.3808C4.77002 28.3108 5.64002 27.4408 6.71002 27.4408H9.06C10.16 27.4408 11.06 26.5508 11.06 25.4408V21.5608C11.06 20.4908 11.93 19.6208 13 19.6208H29.58C30.65 19.6208 31.52 20.4908 31.52 21.5608V25.4408C31.52 26.5408 32.41 27.4408 33.52 27.4408H55.21C56.28 27.4408 57.15 28.3108 57.15 29.3808V57.1908H57.14Z" fill="#222E4C"/>
<path d="M34.96 38.3901V36.4401C34.96 35.2801 34.01 34.3301 32.85 34.3301H29.07C27.9 34.3301 26.95 35.2801 26.95 36.4401V38.3901H25C23.84 38.3901 22.89 39.3401 22.89 40.5001V44.2901C22.89 45.4501 23.84 46.4001 25 46.4001H26.95V48.3501C26.95 49.5101 27.9 50.4601 29.07 50.4601H32.85C34.01 50.4601 34.96 49.5101 34.96 48.3501V46.4001H36.91C38.07 46.4001 39.02 45.4501 39.02 44.2901V40.5001C39.02 39.3401 38.07 38.3901 36.91 38.3901H34.96ZM36.91 44.4001H33.96C33.41 44.4001 32.96 44.8501 32.96 45.4001V48.3501C32.96 48.4101 32.91 48.4701 32.84 48.4701L28.94 48.3501V45.4001C28.94 44.8501 28.49 44.4001 27.94 44.4001L24.87 44.2801L24.99 40.3801H27.94C28.49 40.3801 28.94 39.9301 28.94 39.3801L29.06 36.3201L32.96 36.4401V39.3901C32.96 39.9401 33.41 40.3901 33.96 40.3901L37.03 40.5001L36.92 44.4001H36.91Z" fill="#222E4C"/>
<path d="M30.96 30.5508C24.42 30.5508 19.11 35.8708 19.11 42.4008C19.11 48.9308 24.43 54.2508 30.96 54.2508C37.49 54.2508 42.81 48.9308 42.81 42.4008C42.81 35.8708 37.49 30.5508 30.96 30.5508ZM30.96 52.2608C25.53 52.2608 21.1 47.8408 21.1 42.4008C21.1 36.9608 25.52 32.5408 30.96 32.5408C36.4 32.5408 40.82 36.9608 40.82 42.4008C40.82 47.8408 36.4 52.2608 30.96 52.2608Z" fill="#222E4C"/>
</svg>
