<svg width="60" height="62" viewBox="0 0 60 62" fill="none" xmlns="http://www.w3.org/2000/svg">
<path d="M55.16 41.1198L42.82 32.8698C42.26 32.4898 41.92 31.8598 41.92 31.1898C41.92 30.5198 42.26 29.8798 42.82 29.5098L55.17 21.1998L48.76 11.7498L38.97 18.3898C38.35 18.8098 37.55 18.8498 36.88 18.4998C36.22 18.1498 35.8 17.4599 35.8 16.7099V4.83984L24.38 4.87985L24.42 16.7099C24.42 17.4599 24.01 18.1498 23.34 18.4998C22.68 18.8498 21.88 18.8098 21.25 18.3898L11.39 11.7598L5.04999 21.2598L17.39 29.5098C17.95 29.8898 18.29 30.5198 18.29 31.1898C18.29 31.8598 17.95 32.4998 17.39 32.8698L5.06999 41.1498L11.44 50.6198L21.24 43.9798C21.58 43.7498 21.98 43.6398 22.37 43.6398C22.7 43.6398 23.02 43.7199 23.32 43.8799C23.98 44.2299 24.4 44.9198 24.4 45.6698V57.5399L35.78 57.4998V45.6698C35.78 44.9198 36.19 44.2299 36.86 43.8799C37.52 43.5299 38.32 43.5699 38.95 43.9899L48.8 50.6098L55.14 41.1098L55.16 41.1198Z" fill="#D89B86"/>
<path d="M35.85 61.5701H24.39C22.17 61.5701 20.37 59.7701 20.37 57.5501V49.4901L13.68 53.9901C12.8 54.5801 11.72 54.8001 10.67 54.6001C9.61999 54.4001 8.69999 53.7901 8.10999 52.9001L0.609994 41.7501C0.309994 41.3001 0.199997 40.7501 0.299997 40.2301C0.399997 39.7001 0.709997 39.2401 1.16 38.9401L12.66 31.2101L2.80999 24.5901C0.969991 23.3501 0.479995 20.8501 1.72 19.0101L8.10999 9.50008C8.70999 8.61008 9.61999 8.00008 10.67 7.80008C11.72 7.60008 12.81 7.82008 13.69 8.41008L20.38 12.9101V4.85008C20.38 2.63008 22.18 0.830078 24.4 0.830078H35.86C38.08 0.830078 39.88 2.63008 39.88 4.85008V12.9101L46.57 8.41008C47.45 7.82008 48.53 7.60008 49.58 7.80008C50.63 8.00008 51.55 8.61008 52.14 9.50008L58.53 19.0001C59.13 19.9001 59.34 20.9701 59.13 22.0201C58.93 23.0501 58.31 23.9801 57.44 24.5801L47.59 31.2001L57.44 37.8201C59.28 39.0601 59.77 41.5601 58.53 43.4001L52.14 52.9101C51.55 53.7901 50.62 54.4101 49.58 54.6101C48.53 54.8201 47.44 54.5901 46.57 54.0001L39.88 49.5001V57.5601C39.88 59.7801 38.08 61.5801 35.86 61.5801L35.85 61.5701ZM22.4 43.6501C22.73 43.6501 23.05 43.7301 23.35 43.8901C24.01 44.2401 24.43 44.9301 24.43 45.6801V57.5501L35.81 57.5101V45.6801C35.81 44.9301 36.22 44.2401 36.89 43.8901C37.55 43.5401 38.35 43.5801 38.98 44.0001L48.83 50.6201L55.17 41.1201L42.83 32.8701C42.27 32.4901 41.93 31.8601 41.93 31.1901C41.93 30.5201 42.27 29.8801 42.83 29.5101L55.18 21.2001L48.77 11.7501L38.98 18.3901C38.36 18.8101 37.56 18.8501 36.89 18.5001C36.23 18.1501 35.81 17.4601 35.81 16.7101V4.84007L24.39 4.88008L24.43 16.7101C24.43 17.4601 24.02 18.1501 23.35 18.5001C22.69 18.8501 21.89 18.8101 21.26 18.3901L11.4 11.7601L5.05999 21.2601L17.4 29.5101C17.96 29.8901 18.3 30.5201 18.3 31.1901C18.3 31.8601 17.96 32.5001 17.4 32.8701L5.08 41.1501L11.45 50.6201L21.25 43.9801C21.59 43.7501 21.99 43.6401 22.38 43.6401L22.4 43.6501Z" fill="#222E4C"/>
</svg>
