<svg width="58" height="60" viewBox="0 0 58 60" fill="none" xmlns="http://www.w3.org/2000/svg">
<path d="M9.21002 47.6698C9.21002 51.0598 11.02 53.9998 13.71 55.6498C13.92 55.6698 14.13 55.7098 14.34 55.7098C18.4 55.7098 21.71 52.4098 21.71 48.3398V12.8398H9.21002V47.6698Z" fill="#D89B86"/>
<path d="M38.49 47.6697C38.49 51.0397 40.28 53.9697 42.95 55.6197C43.24 55.6497 43.52 55.7097 43.81 55.7097C47.87 55.7097 51.18 52.4097 51.18 48.3397V30.9297H38.49V47.6697Z" fill="#6D9AC2"/>
<path d="M25.06 0.220703H3.63C2.15 0.220703 0.950012 1.4207 0.950012 2.9007C0.950012 4.1407 1.81002 5.1407 2.96002 5.4407V48.3407C2.96002 54.6207 8.06998 59.7307 14.35 59.7307C20.63 59.7307 25.74 54.6207 25.74 48.3407V5.4507C26.89 5.1507 27.75 4.1507 27.75 2.9107C27.75 1.4307 26.55 0.230703 25.07 0.230703L25.06 0.220703ZM14.34 55.7107C10.28 55.7107 6.96997 52.4107 6.96997 48.3407V13.2907H21.71V48.3407C21.71 52.4007 18.41 55.7107 14.34 55.7107ZM6.96997 11.1807V5.5807H21.71V11.1707H6.96997V11.1807Z" fill="#222E4C"/>
<path d="M57.21 2.9007C57.21 1.4207 56.01 0.220703 54.53 0.220703H33.1C31.62 0.220703 30.42 1.4207 30.42 2.9007C30.42 4.1407 31.28 5.1407 32.43 5.4407V48.3407C32.43 54.6207 37.54 59.7307 43.82 59.7307C50.1 59.7307 55.21 54.6207 55.21 48.3407V5.4507C56.36 5.1507 57.22 4.1507 57.22 2.9107L57.21 2.9007ZM43.81 55.7107C39.75 55.7107 36.44 52.4107 36.44 48.3407V31.7007H51.18V48.3407C51.18 52.4007 47.88 55.7107 43.81 55.7107ZM36.44 29.5907V5.5807H51.18V29.5907H36.44Z" fill="#222E4C"/>
</svg>
