<svg width="72" height="57" viewBox="0 0 72 57" fill="none" xmlns="http://www.w3.org/2000/svg">
<path d="M10.41 20.7096C10.41 20.7096 10.35 20.6396 10.32 20.5996C10.35 20.6396 10.37 20.6696 10.39 20.6996H10.4L10.41 20.7096Z" fill="#D89B86"/>
<path d="M21.31 20.5203C21.36 20.4503 21.41 20.3803 21.45 20.3203C21.4 20.3903 21.34 20.4503 21.29 20.5203H21.31Z" fill="#D89B86"/>
<path d="M10.41 20.7096C10.41 20.7096 10.35 20.6396 10.32 20.5996C10.35 20.6396 10.37 20.6696 10.39 20.6996H10.4L10.41 20.7096Z" fill="#D89B86"/>
<path d="M66.94 29.5089V7.31885C66.94 6.20885 66.04 5.29883 64.92 5.29883H43.03C38.2 5.29883 34.08 8.78883 33.29 13.5488L31.31 25.4588H10.47C7.49997 25.4588 5.09003 27.8688 5.09003 30.8388C5.09003 33.8088 7.49997 36.2188 10.47 36.2188H47.88L39.82 41.7888C38.65 42.5988 37.84 43.8488 37.59 45.2488C37.33 46.6488 37.65 48.0988 38.46 49.2688C39.27 50.4488 40.51 51.2488 41.92 51.4988C43.32 51.7588 44.77 51.4388 45.94 50.6288L65.34 37.1989C66.35 36.4989 66.96 35.3488 66.96 34.1188V29.4789L66.94 29.5089Z" fill="#D89B86"/>
<path d="M8.96997 15.7398C8.27997 14.1398 9.00997 12.2898 10.6 11.5998C12.19 10.9098 14.05 11.6398 14.74 13.2398C15.43 14.8298 16.83 21.5898 15.23 22.2798C13.64 22.9698 9.66002 17.3398 8.96002 15.7498L8.96997 15.7398Z" fill="#6D9AC2"/>
<path d="M22.83 15.4099C23.52 13.8199 22.79 11.9599 21.2 11.2699C19.61 10.5799 17.75 11.3099 17.07 12.8999C16.37 14.4899 14.98 21.2499 16.58 21.9399C18.17 22.6299 22.15 16.9999 22.84 15.3999L22.83 15.4099Z" fill="#6D9AC2"/>
<path d="M12.41 36.6889C12.25 37.2789 12.35 37.9189 12.67 38.4389C12.99 38.9589 13.51 39.3389 14.11 39.4689L19.41 40.6389C20.59 40.8989 21.77 40.1789 22.08 39.0089L25.64 25.5089C25.8 24.9189 25.71 24.2789 25.38 23.7589C25.06 23.2389 24.54 22.8589 23.94 22.7289L18.65 21.5589C17.47 21.2989 16.29 22.0189 15.98 23.1889L12.41 36.6889Z" fill="#6D9AC2"/>
<path d="M14.11 39.4704C13.51 39.3404 12.99 38.9704 12.67 38.4404C12.35 37.9204 12.26 37.2804 12.42 36.6904L15.96 23.3003L15.94 23.2304C15.79 22.6504 15.41 22.1603 14.9 21.8603C14.38 21.5603 13.77 21.4804 13.19 21.6304L9.42997 22.6204C8.22997 22.9404 7.50999 24.1704 7.82999 25.3804L11.39 38.8904C11.54 39.4704 11.92 39.9603 12.43 40.2703C12.95 40.5703 13.57 40.6504 14.14 40.5004L16.23 39.9504L14.11 39.4804V39.4704Z" fill="#6D9AC2"/>
<path d="M31.32 25.3301L31.3 25.4701H31.31L31.32 25.3301Z" fill="#222E4C"/>
<path d="M64.92 0.529541H43.03C35.83 0.529541 29.75 5.67954 28.57 12.7795L27.25 20.6996L21.16 20.7195C21.21 20.6495 24.04 16.7395 24.29 16.0495C24.71 14.8595 24.82 13.5996 24.36 12.4196C23.89 11.2396 23 10.3095 21.84 9.80954C19.63 8.85954 16.95 9.83955 15.81 11.9095C14.58 10.0595 12.06 9.22956 9.96997 10.1396C7.56997 11.1796 6.47001 13.9795 7.51001 16.3795C7.65001 16.7095 8.81002 18.7395 10.33 20.6095C10.35 20.6395 10.37 20.6795 10.4 20.7095C4.83002 20.7495 0.320007 25.2795 0.320007 30.8595C0.320007 36.4395 4.86998 41.0195 10.48 41.0195H10.86C11.1 41.2595 11.35 41.4696 11.64 41.6396C12.23 41.9796 12.9 42.1595 13.58 42.1595C13.86 42.1595 14.15 42.1095 14.42 42.0495H18.43L19.08 42.1895C19.36 42.2495 19.64 42.2795 19.91 42.2795C21.01 42.2795 21.98 41.7796 22.69 41.0096H34.17C33.54 42.0496 33.1 43.2095 32.89 44.4095C32.4 47.0695 32.98 49.7695 34.53 51.9995C34.56 52.0395 34.59 52.0795 34.61 52.1195C36.14 54.2595 38.48 55.7495 41.06 56.2195C41.66 56.3295 42.27 56.3795 42.88 56.3795C44.95 56.3795 46.95 55.7595 48.66 54.5795L68.06 41.1495C70.36 39.5595 71.73 36.9396 71.73 34.1396V7.30954C71.73 3.55954 68.68 0.519531 64.94 0.519531L64.92 0.529541ZM10.46 25.4796H13.73L12.7 29.3896L11.61 33.5195L9.51001 25.5795C9.82001 25.5195 10.13 25.4796 10.46 25.4796ZM14.18 36.2395L17.02 25.4796H24L21.16 36.2395H14.18ZM19.95 12.5995C20.16 12.5995 20.37 12.6396 20.56 12.7296C20.94 12.8996 21.23 13.1995 21.39 13.5895C21.54 13.9795 21.53 14.3995 21.37 14.7795C20.85 15.9795 18.87 18.6695 17.56 19.8595C17.56 19.3695 17.54 18.8795 17.49 18.3795C17.67 16.6295 18.12 14.4596 18.52 13.5396C18.76 12.9696 19.33 12.6095 19.95 12.6095V12.5995ZM11.24 13.0595C11.44 12.9795 11.64 12.9295 11.85 12.9295C12.47 12.9295 13.04 13.2995 13.28 13.8695C13.66 14.7595 14.12 18.2095 14.25 19.9995C14.18 19.9995 14.11 19.9995 14.03 19.9995C12.73 18.7295 10.91 16.2495 10.42 15.1195C10.08 14.3295 10.44 13.4095 11.23 13.0695L11.24 13.0595ZM5.09003 30.8595C5.09003 29.3895 5.68 28.0695 6.62 27.0995L8.96997 35.9995C6.72997 35.3495 5.09003 33.3095 5.09003 30.8595ZM66.94 29.5096V34.1495C66.94 35.3795 66.34 36.5296 65.33 37.2296L45.93 50.6595C45.03 51.2895 43.96 51.6195 42.87 51.6195C42.55 51.6195 42.23 51.5895 41.91 51.5295C40.51 51.2795 39.26 50.4695 38.46 49.2995C37.65 48.1195 37.34 46.6695 37.59 45.2695C37.84 43.8695 38.65 42.6195 39.82 41.8095L47.88 36.2395H44.41H24.47L27.19 25.9095C27.23 25.7695 27.24 25.6195 27.26 25.4695H31.32L33.3 13.5595C34.09 8.79954 38.21 5.29953 43.04 5.29953H64.93C66.04 5.29953 66.95 6.19955 66.95 7.31955V29.5096H66.94Z" fill="#222E4C"/>
</svg>
