<svg width="69" height="62" viewBox="0 0 69 62" fill="none" xmlns="http://www.w3.org/2000/svg">
<path d="M5.07001 34.7298H21.28L25.65 27.9998C26.14 27.2498 26.97 26.7698 27.9 26.7298H27.95H27.96C28.83 26.7298 29.66 27.1298 30.19 27.7798L35.74 34.7298H40.29C40.97 34.7298 41.63 34.9698 42.14 35.4198L45.51 38.3698H45.62L48.12 35.6398C48.65 35.0598 49.4 34.7298 50.19 34.7298H64.27V16.8398H5.07001V34.7298Z" fill="#6D9AC2"/>
<path d="M47.88 44.2303C47.35 44.8103 46.6 45.1403 45.81 45.1403C45.13 45.1403 44.47 44.8903 43.96 44.4503L39.26 40.3403H34.41C33.55 40.3403 32.76 39.9603 32.22 39.2903L28.25 34.3203L25.17 39.0603C24.65 39.8603 23.77 40.3403 22.81 40.3403H5.07001V55.5403C5.07001 56.3703 5.74001 57.0403 6.57001 57.0403H62.8C63.63 57.0403 64.3 56.3703 64.3 55.5403V40.3403H51.45L47.89 44.2303H47.88Z" fill="#D89B86"/>
<path d="M45.64 38.3691H45.53L45.59 38.4191L45.64 38.3691Z" fill="#D89B86"/>
<path d="M62.8 0.589844H6.56001C3.22001 0.589844 0.51001 3.30984 0.51001 6.64984V55.5398C0.51001 58.8798 3.23001 61.5998 6.57001 61.5998H62.8C66.14 61.5998 68.86 58.8798 68.86 55.5398V6.64984C68.86 3.30984 66.14 0.589844 62.8 0.589844ZM31.55 5.59984C33.28 5.59984 34.69 6.99984 34.69 8.73984C34.69 10.4798 33.29 11.8798 31.55 11.8798C29.81 11.8798 28.41 10.4798 28.41 8.73984C28.41 6.99984 29.81 5.59984 31.55 5.59984ZM21.19 5.59984C22.92 5.59984 24.33 6.99984 24.33 8.73984C24.33 10.4798 22.93 11.8798 21.19 11.8798C19.45 11.8798 18.05 10.4798 18.05 8.73984C18.05 6.99984 19.45 5.59984 21.19 5.59984ZM10.83 5.59984C12.56 5.59984 13.97 6.99984 13.97 8.73984C13.97 10.4798 12.57 11.8798 10.83 11.8798C9.09001 11.8798 7.69001 10.4798 7.69001 8.73984C7.69001 6.99984 9.09001 5.59984 10.83 5.59984ZM64.3 55.5398C64.3 56.3698 63.63 57.0398 62.8 57.0398H6.56001C5.73001 57.0398 5.06001 56.3698 5.06001 55.5398V38.9398H22.8C23.28 38.9398 23.72 38.6998 23.98 38.2998L28.12 31.9298L33.3 38.4098C33.57 38.7398 33.97 38.9398 34.4 38.9398H39.77L44.87 43.3898C45.13 43.6198 45.46 43.7398 45.79 43.7398C46.17 43.7398 46.54 43.5898 46.82 43.2898L50.8 38.9398H64.27V55.5398H64.3ZM64.3 36.1298H50.22C49.82 36.1298 49.45 36.2998 49.18 36.5898L45.7 40.3798L41.23 36.4798C40.98 36.2598 40.65 36.1298 40.31 36.1298H35.08L29.1 28.6598C28.82 28.3198 28.39 28.1298 27.97 28.1298H27.94C27.49 28.1498 27.08 28.3898 26.83 28.7698L22.05 36.1298H5.07001V16.8398H64.3V36.1298Z" fill="#222E4C"/>
</svg>
