<svg width="62" height="62" viewBox="0 0 62 62" fill="none" xmlns="http://www.w3.org/2000/svg">
<path d="M26.82 7.13961C21.35 1.66961 12.48 1.66961 7.01001 7.13961C4.38001 9.76961 2.91 13.3296 2.91 17.0396C2.91 20.7496 4.39001 24.3196 7.01001 26.9396L11.18 31.1096L30.99 11.2996L26.82 7.12961V7.13961Z" fill="#6D9AC2"/>
<path d="M50.8 31.1191L30.99 50.9291L35.16 55.0991C37.79 57.7291 41.35 59.1991 45.06 59.1991C48.78 59.1991 52.34 57.7191 54.96 55.0991C60.43 49.6291 60.43 40.7591 54.96 35.2891L50.79 31.1191H50.8Z" fill="#6D9AC2"/>
<path d="M54.97 26.9494C57.6 24.3194 59.07 20.7594 59.07 17.0494C59.07 13.3394 57.59 9.76937 54.97 7.14937C49.5 1.67938 40.63 1.67938 35.16 7.14937L30.99 11.3194L11.18 31.1294L7.01 35.2994C1.54 40.7694 1.54 49.6394 7.01 55.1094C9.64 57.7394 13.2 59.2094 16.91 59.2094C20.63 59.2094 24.19 57.7294 26.81 55.1094L30.98 50.9394L50.79 31.1294L54.96 26.9594L54.97 26.9494ZM39.07 9.59938C42.09 6.95938 45.86 6.50937 48.9 8.40937C49.59 8.83937 49.8 9.74937 49.37 10.4394C48.94 11.1294 48.03 11.3394 47.34 10.9094C45.41 9.69937 43.04 10.0394 41.01 11.8194C40.73 12.0694 40.38 12.1894 40.04 12.1894C39.63 12.1894 39.22 12.0194 38.93 11.6894C38.39 11.0794 38.46 10.1494 39.07 9.60937V9.59938Z" fill="#D89B86"/>
<path d="M40.04 12.1793C40.38 12.1793 40.73 12.0593 41.01 11.8093C43.04 10.0393 45.41 9.69925 47.34 10.8993C48.03 11.3293 48.94 11.1193 49.37 10.4293C49.8 9.73925 49.59 8.82925 48.9 8.39925C45.85 6.49925 42.08 6.94925 39.07 9.58925C38.46 10.1293 38.4 11.0593 38.93 11.6693C39.22 11.9993 39.63 12.1693 40.04 12.1693V12.1793Z" fill="white"/>
<path d="M54 31.4703L56.85 28.4603C62.92 22.0303 62.78 12.1003 56.53 5.85031L56.25 5.57031C53.19 2.51031 49.11 0.820312 44.78 0.820312C40.45 0.820312 36.37 2.51031 33.31 5.57031L30.7 8.18031L28.09 5.58031C25.03 2.52031 20.95 0.830312 16.62 0.830312C12.29 0.830312 8.20999 2.52031 5.14999 5.58031C2.08999 8.64031 0.399994 12.7203 0.399994 17.0503C0.399994 21.3803 2.08999 25.4503 5.14999 28.5203L7.76001 31.1303L5.14999 33.7403C-1.17001 40.0603 -1.17 50.3503 5.22 56.7503C8.75 59.9903 13.06 61.7003 17.7 61.7003C22.67 61.7003 27.61 59.6803 30.22 56.6403L31.7 55.0703L33.31 56.6803C36.37 59.7403 40.44 61.4303 44.77 61.4303C49.1 61.4303 53.18 59.7403 56.24 56.6803C62.56 50.3603 62.56 40.0703 56.24 33.7403L53.98 31.4803L54 31.4703ZM10.9 27.9903L8.29001 25.3803C6.06001 23.1503 4.84 20.1903 4.84 17.0403C4.84 13.8903 6.07001 10.9303 8.29001 8.70031C10.52 6.47031 13.48 5.24031 16.63 5.24031C19.78 5.24031 22.74 6.47031 24.97 8.69031L27.57 11.3003L10.89 27.9803L10.9 27.9903ZM26.94 53.6603C25.46 55.3903 21.93 57.2503 17.71 57.2503C15.27 57.2503 11.64 56.5903 8.29001 53.5303C3.69001 48.9303 3.69001 41.4403 8.29001 36.8403L10.9 34.2303L33.84 11.2903L36.45 8.68031C38.68 6.45031 41.64 5.22031 44.79 5.22031C47.94 5.22031 50.9 6.45031 53.13 8.67031L53.41 8.95031C57.96 13.5003 58.06 20.7203 53.64 25.4003L50.88 28.3203L28.59 51.9003L26.95 53.6403L26.94 53.6603ZM53.13 53.5303C50.9 55.7603 47.94 56.9803 44.78 56.9803C41.62 56.9803 38.67 55.7503 36.44 53.5303L34.74 51.8303L50.95 34.6803L53.12 36.8503C57.72 41.4503 57.72 48.9303 53.12 53.5303H53.13Z" fill="#222E4C"/>
<path d="M32.49 26.6405C33.47 25.6605 33.47 24.0705 32.49 23.0905C31.51 22.1105 29.92 22.1105 28.93 23.0905C27.95 24.0705 27.95 25.6605 28.93 26.6405C29.91 27.6205 31.51 27.6205 32.49 26.6405Z" fill="#222E4C"/>
<path d="M26.23 32.9002C27.21 31.9202 27.21 30.3202 26.23 29.3502C25.25 28.3702 23.66 28.3702 22.67 29.3502C21.69 30.3302 21.69 31.9202 22.67 32.9002C23.65 33.8802 25.24 33.8802 26.23 32.9002Z" fill="#222E4C"/>
<path d="M32.49 39.1502C33.47 38.1702 33.47 36.5802 32.49 35.6002C31.51 34.6202 29.92 34.6202 28.93 35.6002C27.95 36.5802 27.95 38.1702 28.93 39.1502C29.91 40.1302 31.51 40.1302 32.49 39.1502Z" fill="#222E4C"/>
<path d="M35.19 29.3405C34.21 30.3205 34.21 31.9105 35.19 32.8905C36.17 33.8705 37.76 33.8705 38.75 32.8905C39.73 31.9105 39.73 30.3105 38.75 29.3405C37.77 28.3605 36.18 28.3605 35.19 29.3405Z" fill="#222E4C"/>
<path d="M45.07 29.5507C45.21 29.6907 45.4 29.7707 45.59 29.7707C45.78 29.7707 45.97 29.7007 46.11 29.5507C46.4 29.2607 46.4 28.8007 46.11 28.5107L33.6 16.0007C33.31 15.7107 32.85 15.7107 32.56 16.0007C32.27 16.2907 32.27 16.7507 32.56 17.0407L45.07 29.5507Z" fill="#222E4C"/>
<path d="M29.42 46.2402C29.71 45.9502 29.71 45.4902 29.42 45.2002L16.91 32.6902C16.62 32.4002 16.16 32.4002 15.87 32.6902C15.58 32.9802 15.58 33.4402 15.87 33.7302L28.38 46.2402C28.52 46.3802 28.71 46.4602 28.9 46.4602C29.09 46.4602 29.28 46.3902 29.42 46.2402Z" fill="#222E4C"/>
</svg>
