<svg width="46" height="63" viewBox="0 0 46 63" fill="none" xmlns="http://www.w3.org/2000/svg">
<path d="M26.45 31.2791C28.48 31.2791 30.13 32.9291 30.13 34.9591V44.4591C30.13 46.4891 28.48 48.1392 26.45 48.1392H9.96997V57.5891C9.96997 57.8291 10.05 58.0392 10.11 58.2592H37.55C37.92 58.2592 38.22 57.9591 38.22 57.5891V22.3691H9.97998V31.2791H26.46H26.45Z" fill="#6D9AC2"/>
<path d="M35.78 4.16992H10.7C10.24 4.86992 9.96997 5.69991 9.96997 6.59991V6.8699H38.21V6.59991C38.21 5.25991 37.12 4.16992 35.78 4.16992Z" fill="#6D9AC2"/>
<path d="M39.48 10.8203H7.01001C6.55001 11.5203 6.28003 12.3503 6.28003 13.2503V18.4203H41.92V13.2503C41.92 11.9103 40.83 10.8203 39.49 10.8203H39.48Z" fill="#D89B86"/>
<path d="M26.45 46.0598C27.34 46.0598 28.06 45.3399 28.06 44.4499V34.9499C28.06 34.0599 27.34 33.3398 26.45 33.3398H9.96997V46.0498H26.45V46.0598Z" fill="#D89B86"/>
<path d="M45.86 13.2507C45.86 10.6907 44.34 8.50071 42.16 7.48071V6.60071C42.16 3.08071 39.3 0.220703 35.78 0.220703H10.23C6.70998 0.220703 3.84998 3.08071 3.84998 6.60071V7.48071C1.66998 8.50071 0.150024 10.6907 0.150024 13.2507V22.3707H3.84998V57.5907C3.84998 60.1407 5.91997 62.2107 8.46997 62.2107H37.54C40.09 62.2107 42.16 60.1407 42.16 57.5907V22.3707H45.86V13.2507ZM41.91 18.4207H4.09998V13.2507C4.09998 11.9107 5.19003 10.8207 6.53003 10.8207H39.48C40.82 10.8207 41.91 11.9107 41.91 13.2507V18.4207ZM7.79999 6.60071C7.79999 5.26071 8.88998 4.17072 10.23 4.17072H35.78C37.12 4.17072 38.21 5.26071 38.21 6.60071V6.8707H7.79999V6.60071ZM7.79999 33.3407H26.45C27.34 33.3407 28.06 34.0607 28.06 34.9507V44.4507C28.06 45.3407 27.34 46.0607 26.45 46.0607H7.79999V33.3507V33.3407ZM38.21 57.5807C38.21 57.9507 37.91 58.2507 37.54 58.2507H8.46997C8.09997 58.2507 7.79999 57.9507 7.79999 57.5807V48.1307H26.45C28.48 48.1307 30.13 46.4807 30.13 44.4507V34.9507C30.13 32.9207 28.48 31.2707 26.45 31.2707H7.79999V22.3607H38.21V57.5807Z" fill="#222E4C"/>
</svg>
