<svg width="66" height="70" viewBox="0 0 66 70" fill="none" xmlns="http://www.w3.org/2000/svg">
<path d="M24.57 19.5602H29.64V16.3102C29.64 14.3402 28.04 12.7402 26.07 12.7402C25.99 12.7402 25.92 12.7603 25.84 12.7603C25.05 13.7303 24.56 14.9502 24.56 16.3002V19.5502L24.57 19.5602Z" fill="#D89B86"/>
<path d="M17.08 51.101C20.57 51.101 23.57 53.1809 24.95 56.1609H42.89C44.27 53.1809 47.27 51.101 50.76 51.101C54.25 51.101 57.25 53.1809 58.63 56.1609H60.85C61.11 56.1609 61.32 55.9509 61.32 55.6909V40.5209C61.32 38.0309 59.3 36.011 56.81 36.011H47.44V23.2709C47.44 23.1509 47.39 23.0609 47.32 22.9709C47.31 22.9609 47.3 22.9409 47.29 22.9309C47.21 22.8509 47.1 22.8009 46.98 22.8009H29.64V20.2109H22.51V22.8009H6.85001C6.82001 22.9609 6.75 23.1009 6.75 23.2709V55.6809C6.75 55.8509 6.81001 55.9909 6.85001 56.1509H9.20001C10.58 53.1709 13.58 51.0909 17.07 51.0909L17.08 51.101ZM33.02 26.5809H43.52V35.981H33.02V26.5809ZM8 47.0209C8 46.4009 8.5 45.9009 9.12 45.9009H56.9C57.52 45.9009 58.02 46.4009 58.02 47.0209C58.02 47.6409 57.52 48.141 56.9 48.141H9.12C8.5 48.141 8 47.6409 8 47.0209Z" fill="#6D9AC2"/>
<path d="M23.53 59.7996C23.53 56.2396 20.64 53.3496 17.08 53.3496C13.52 53.3496 10.63 56.2396 10.63 59.7996C10.63 63.3596 13.52 66.2496 17.08 66.2496C20.64 66.2496 23.53 63.3596 23.53 59.7996ZM17.08 62.7896C15.42 62.7896 14.09 61.4496 14.09 59.7996C14.09 58.1496 15.43 56.7996 17.08 56.7996C18.73 56.7996 20.08 58.1396 20.08 59.7996C20.08 61.4596 18.74 62.7896 17.08 62.7896Z" fill="#D89B86"/>
<path d="M57.22 59.7996C57.22 56.2396 54.33 53.3496 50.77 53.3496C47.21 53.3496 44.32 56.2396 44.32 59.7996C44.32 63.3596 47.21 66.2496 50.77 66.2496C54.33 66.2496 57.22 63.3596 57.22 59.7996ZM50.77 62.7896C49.11 62.7896 47.78 61.4496 47.78 59.7996C47.78 58.1496 49.12 56.7996 50.77 56.7996C52.42 56.7996 53.77 58.1396 53.77 59.7996C53.77 61.4596 52.43 62.7896 50.77 62.7896Z" fill="#D89B86"/>
<path d="M23.64 31.9401H20.49V28.7901C20.49 28.5301 20.28 28.3301 20.03 28.3301H16.67C16.41 28.3301 16.2 28.5401 16.2 28.7901V31.9401H13.05C12.79 31.9401 12.59 32.1501 12.59 32.4001V35.7701C12.59 36.0301 12.8 36.2301 13.05 36.2301H16.2V39.3801C16.2 39.6401 16.41 39.8401 16.67 39.8401H20.03C20.29 39.8401 20.49 39.6301 20.49 39.3801V36.2301H23.64C23.89 36.2301 24.1 36.0201 24.1 35.7701V32.4001C24.1 32.1401 23.89 31.9401 23.64 31.9401Z" fill="#D89B86"/>
<path d="M26.3 6.7504C26.95 6.7504 27.48 6.2204 27.48 5.5704V1.83038C27.48 1.18038 26.95 0.650391 26.3 0.650391C25.65 0.650391 25.12 1.18038 25.12 1.83038V5.5704C25.12 6.2204 25.65 6.7504 26.3 6.7504Z" fill="#222E4C"/>
<path d="M32.37 8.0697C32.67 8.0697 32.97 7.94969 33.21 7.71969L35.86 5.0697C36.32 4.6097 36.32 3.85969 35.86 3.39969C35.4 2.93969 34.65 2.93969 34.19 3.39969L31.54 6.04968C31.08 6.50968 31.08 7.25969 31.54 7.71969C31.77 7.94969 32.07 8.0697 32.38 8.0697H32.37Z" fill="#222E4C"/>
<path d="M19.39 7.71969C19.62 7.94969 19.92 8.0697 20.23 8.0697C20.54 8.0697 20.83 7.94969 21.07 7.71969C21.53 7.25969 21.53 6.50968 21.07 6.04968L18.43 3.39969C17.97 2.93969 17.22 2.93969 16.76 3.39969C16.3 3.85969 16.3 4.6097 16.76 5.0697L19.4 7.71969H19.39Z" fill="#222E4C"/>
<path d="M56.9 45.8398H9.12C8.47 45.8398 7.94 46.3698 7.94 47.0198C7.94 47.6698 8.47 48.1999 9.12 48.1999H56.9C57.55 48.1999 58.08 47.6698 58.08 47.0198C58.08 46.3698 57.55 45.8398 56.9 45.8398Z" fill="#222E4C"/>
<path d="M43.52 26.5801H33.02V35.9801H43.52V26.5801Z" fill="#222E4C"/>
<path d="M17.08 56.8008C15.42 56.8008 14.09 58.1408 14.09 59.8008C14.09 61.4608 15.43 62.7908 17.08 62.7908C18.73 62.7908 20.08 61.4508 20.08 59.8008C20.08 58.1508 18.74 56.8008 17.08 56.8008Z" fill="#222E4C"/>
<path d="M56.83 31.7507H51.74V23.2907C51.74 20.6707 49.61 18.5407 46.99 18.5407H33.93V16.3107C33.93 11.9907 30.41 8.4707 26.09 8.4707C21.77 8.4707 18.25 11.9907 18.25 16.3107V18.5407H5.19C2.57 18.5407 0.440002 20.6707 0.440002 23.2907V55.7007C0.440002 58.3207 2.57 60.4507 5.19 60.4507H7.23001C7.57001 65.6207 11.84 69.7407 17.1 69.7407C22.36 69.7407 26.63 65.6207 26.97 60.4507H40.92C41.26 65.6207 45.53 69.7407 50.79 69.7407C56.05 69.7407 60.32 65.6207 60.66 60.4507H60.88C63.5 60.4507 65.63 58.3207 65.63 55.7007V40.5307C65.63 35.6907 61.69 31.7507 56.85 31.7507H56.83ZM22.63 16.3107C22.63 14.4007 24.18 12.8507 26.08 12.8507C27.98 12.8507 29.54 14.4007 29.54 16.3107V19.3607H22.63V16.3107ZM17.09 65.0007C14.22 65.0007 11.88 62.6607 11.88 59.7907C11.88 56.9207 14.22 54.5807 17.09 54.5807C19.96 54.5807 22.3 56.9207 22.3 59.7907C22.3 62.6607 19.96 65.0007 17.09 65.0007ZM50.78 65.0007C47.91 65.0007 45.57 62.6607 45.57 59.7907C45.57 56.9207 47.91 54.5807 50.78 54.5807C53.65 54.5807 55.99 56.9207 55.99 59.7907C55.99 62.6607 53.65 65.0007 50.78 65.0007ZM61.23 55.6907C61.23 55.8907 61.07 56.0507 60.87 56.0507H59.97C58.49 52.4207 54.94 49.8507 50.78 49.8507C46.62 49.8507 43.07 52.4207 41.59 56.0507H26.28C24.8 52.4207 21.25 49.8507 17.09 49.8507C12.93 49.8507 9.37999 52.4207 7.89999 56.0507H5.19C4.99 56.0507 4.82999 55.8907 4.82999 55.6907V23.2807C4.82999 23.0807 4.99 22.9207 5.19 22.9207H22.64V22.0907H29.55V22.9207H47C47.2 22.9207 47.36 23.0807 47.36 23.2807V36.1307H56.84C59.26 36.1307 61.24 38.1007 61.24 40.5307V55.7007L61.23 55.6907Z" fill="#222E4C"/>
<path d="M50.77 56.8008C49.11 56.8008 47.78 58.1408 47.78 59.8008C47.78 61.4608 49.12 62.7908 50.77 62.7908C52.42 62.7908 53.77 61.4508 53.77 59.8008C53.77 58.1508 52.43 56.8008 50.77 56.8008Z" fill="#222E4C"/>
<path d="M13.04 37.4204H15.01V39.3904C15.01 40.3004 15.75 41.0304 16.66 41.0304H20.02C20.93 41.0304 21.67 40.2904 21.67 39.3904V37.4204H23.64C24.55 37.4204 25.28 36.6804 25.28 35.7704V32.4004C25.28 31.4904 24.54 30.7604 23.64 30.7604H21.67V28.8004C21.67 27.8904 20.93 27.1504 20.02 27.1504H16.66C15.75 27.1504 15.01 27.8904 15.01 28.8004V30.7604H13.04C12.13 30.7604 11.39 31.5004 11.39 32.4004V35.7704C11.39 36.6804 12.13 37.4204 13.04 37.4204ZM13.76 33.1304H17.37V29.5204H19.3V33.1304H22.91V35.0604H19.3V38.6704H17.37V35.0604H13.76V33.1304Z" fill="#222E4C"/>
</svg>
