<svg width="61" height="61" viewBox="0 0 61 61" fill="none" xmlns="http://www.w3.org/2000/svg">
<path d="M34.11 11.931H43.84L33.59 22.181L32.28 21.461C29.51 19.941 26.37 19.141 23.19 19.141C18.16 19.141 13.43 21.091 9.87999 24.641C2.52999 31.991 2.52999 43.941 9.87999 51.291C13.43 54.841 18.17 56.801 23.21 56.801C28.25 56.801 32.98 54.841 36.54 51.291C42.42 45.411 43.73 36.201 39.72 28.891L39 27.571L49.25 17.321V27.051H56.88V4.29102H34.12V11.921L34.11 11.931ZM31.13 45.891C29.02 48.011 26.2 49.171 23.2 49.171C20.2 49.171 17.39 48.011 15.27 45.891C13.16 43.781 11.99 40.961 11.99 37.961C11.99 34.961 13.15 32.151 15.27 30.031C17.38 27.921 20.2 26.751 23.2 26.751C26.2 26.751 29.01 27.911 31.13 30.031C35.5 34.401 35.5 41.511 31.13 45.881V45.891Z" fill="#6D9AC2"/>
<path d="M23.2 60.7908C17.09 60.7908 11.35 58.4208 7.04999 54.1108C-1.86001 45.2008 -1.86001 30.7108 7.04999 21.8008C11.35 17.5008 17.08 15.1308 23.19 15.1308C26.53 15.1308 29.84 15.8608 32.85 17.2608L34.18 15.9308H33.66C31.7 15.9308 30.11 14.3408 30.11 12.3808V3.8508C30.11 1.8908 31.7 0.300781 33.66 0.300781H57.32C58.26 0.300781 59.17 0.68079 59.83 1.34079C60.49 2.00079 60.87 2.9108 60.87 3.8508V27.5108C60.87 29.4708 59.28 31.0608 57.32 31.0608H48.78C46.82 31.0608 45.23 29.4708 45.23 27.5108V26.9908L43.89 28.3308C47.89 36.9408 46.12 47.3508 39.35 54.1208C35.04 58.4308 29.3 60.8008 23.2 60.8008V60.7908ZM23.18 19.1308C18.15 19.1308 13.42 21.0808 9.86998 24.6308C2.51998 31.9808 2.51998 43.9308 9.86998 51.2808C13.42 54.8308 18.16 56.7908 23.2 56.7908C28.24 56.7908 32.97 54.8308 36.53 51.2808C42.41 45.4008 43.72 36.1908 39.71 28.8808L38.99 27.5608L49.24 17.3108V27.0408H56.87V4.28079H34.11V11.9108H43.84L33.59 22.1608L32.28 21.4408C29.51 19.9208 26.37 19.1208 23.19 19.1208L23.18 19.1308ZM23.2 49.1608C20.2 49.1608 17.39 48.0008 15.27 45.8808C13.16 43.7708 11.99 40.9508 11.99 37.9508C11.99 34.9508 13.15 32.1408 15.27 30.0208C17.38 27.9108 20.2 26.7408 23.2 26.7408C26.2 26.7408 29.01 27.9008 31.13 30.0208C35.5 34.3908 35.5 41.5008 31.13 45.8708C29.02 47.9908 26.2 49.1508 23.2 49.1508V49.1608ZM23.2 30.7508C21.27 30.7508 19.46 31.5008 18.1 32.8608C16.74 34.2208 15.99 36.0308 15.99 37.9608C15.99 39.8908 16.74 41.7008 18.1 43.0608C20.82 45.7808 25.58 45.7808 28.3 43.0608C29.66 41.7008 30.41 39.8908 30.41 37.9608C30.41 36.0308 29.66 34.2208 28.3 32.8608C26.94 31.5008 25.13 30.7508 23.2 30.7508Z" fill="#222E4C"/>
</svg>
