<svg width="55" height="61" viewBox="0 0 55 61" fill="none" xmlns="http://www.w3.org/2000/svg">
<path d="M47.82 5.24137C44.24 2.26137 39.41 1.29137 34.96 2.67137C30.14 4.16137 24.97 4.16137 20.14 2.67137C15.69 1.30137 10.86 2.27137 7.27999 5.24137C3.69999 8.22137 1.88 12.8014 2.42 17.4214L6.71999 53.9514C7.01999 56.5314 9.20998 58.4714 11.8 58.4714C13.76 58.4714 15.48 57.1614 15.99 55.2614C18.25 46.8814 22.57 37.3914 27.54 37.3914C32.51 37.3914 36.74 46.6714 39.02 54.9814C39.58 57.0414 41.46 58.4714 43.59 58.4714C46.01 58.4714 48.05 56.6614 48.33 54.2614L52.66 17.4214C53.2 12.8014 51.37 8.22137 47.8 5.24137H47.82Z" fill="#6D9AC2"/>
<path d="M43.61 60.3406C40.64 60.3406 38.02 58.3406 37.23 55.4806C34.65 46.0906 30.58 39.2706 27.55 39.2706C24.52 39.2706 20.38 46.2006 17.8 55.7606C17.07 58.4606 14.61 60.3506 11.81 60.3506C8.27001 60.3506 5.28 57.7006 4.87 54.1806L0.570017 17.6506C-0.0499832 12.3806 2.02001 7.21057 6.09001 3.82057C10.09 0.490572 15.71 -0.639441 20.69 0.900558C25.13 2.27056 29.96 2.27056 34.4 0.900558C39.38 -0.639441 45 0.490572 49.01 3.82057C53.08 7.21057 55.15 12.3906 54.53 17.6506L50.2 54.4906C49.81 57.8306 46.97 60.3506 43.61 60.3506V60.3406ZM27.55 35.5306C34.84 35.5306 39.27 48.7906 40.83 54.4906C41.17 55.7406 42.31 56.6105 43.6 56.6105C45.07 56.6105 46.31 55.5106 46.49 54.0406L50.82 17.2006C51.29 13.1906 49.72 9.26056 46.62 6.67056C43.57 4.13056 39.29 3.28056 35.51 4.45056C30.35 6.04056 24.75 6.04056 19.59 4.45056C15.8 3.28056 11.53 4.14056 8.48002 6.67056C5.38002 9.25056 3.81001 13.1906 4.28001 17.2006L8.58 53.7306C8.77 55.3706 10.16 56.6006 11.81 56.6006C12.93 56.6006 13.91 55.8506 14.2 54.7706C15.42 50.2506 19.98 35.5206 27.56 35.5206L27.55 35.5306Z" fill="#222E4C"/>
</svg>
