<svg width="45" height="68" viewBox="0 0 45 68" fill="none" xmlns="http://www.w3.org/2000/svg">
<path d="M18.55 36.0915C19.73 36.4915 20.97 36.7615 22.28 36.7615C28.69 36.7615 33.9 31.5415 33.9 25.1315C33.9 24.5315 33.84 23.9215 33.72 23.2715H13.21C13.11 23.8815 13.04 24.5015 13.04 25.1315C13.04 29.6215 15.21 33.5915 18.55 36.0915Z" fill="#6D9AC2"/>
<path d="M43.17 65.541C43.17 65.541 43.15 65.581 43.13 65.601H43.18C43.18 65.601 43.17 65.561 43.17 65.541Z" fill="#6D9AC2"/>
<path d="M9.11998 52.5702L7.35997 62.1201C7.26997 62.6001 7.31998 63.0802 7.45998 63.5402H39.11C39.37 63.5402 39.62 63.4202 39.79 63.2202C39.96 63.0202 40.03 62.7502 39.98 62.5002L38.22 52.9501C37.47 48.8701 33.91 45.9102 29.76 45.9102H15.18C14.39 45.9102 13.63 46.0502 12.9 46.2502C10.99 47.8102 9.62 50.0102 9.14 52.5802L9.11998 52.5702Z" fill="#6D9AC2"/>
<path d="M27.27 8.88071H24.3V5.91071C24.3 5.67071 24.1 5.4707 23.86 5.4707H20.69C20.45 5.4707 20.25 5.67071 20.25 5.91071V8.88071H17.28C17.04 8.88071 16.84 9.08071 16.84 9.32071V12.4907C16.84 12.7307 17.04 12.9307 17.28 12.9307H20.25V15.9007C20.25 16.1407 20.45 16.3407 20.69 16.3407H23.86C24.1 16.3407 24.3 16.1407 24.3 15.9007V12.9307H27.27C27.51 12.9307 27.71 12.7307 27.71 12.4907V9.32071C27.71 9.08071 27.51 8.88071 27.27 8.88071Z" fill="#D89B86"/>
<path d="M7.45 19.9402L7.24999 20.6002C6.74999 22.2602 6.51998 23.6901 6.51998 25.1201C6.51998 33.8101 13.59 40.8802 22.29 40.8802C30.99 40.8802 38.05 33.8101 38.05 25.1201C38.05 23.6801 37.82 22.2502 37.32 20.6002L37.12 19.9301L39.66 7.26015C39.91 6.03015 39.24 4.80015 38.08 4.33015L33.95 2.67015C30.23 1.17015 26.31 0.410156 22.3 0.410156C18.29 0.410156 14.36 1.17015 10.64 2.67015L6.51 4.33015C5.35 4.80015 4.67998 6.03015 4.92998 7.26015L7.46999 19.9402H7.45ZM22.29 36.7502C15.88 36.7502 10.66 31.5301 10.66 25.1201C10.66 24.5201 10.72 23.9101 10.84 23.2601H33.73C33.86 23.9201 33.91 24.5201 33.91 25.1201C33.91 31.5301 28.7 36.7502 22.29 36.7502ZM7.35 6.44016L11.48 4.78015C14.93 3.39015 18.56 2.69016 22.29 2.69016C26.02 2.69016 29.64 3.39015 33.09 4.78015L37.22 6.44016C37.37 6.50016 37.46 6.66015 37.42 6.81015L34.96 19.1201H9.6L7.14 6.81015C7.11 6.65015 7.19999 6.50016 7.33999 6.44016H7.35Z" fill="#222E4C"/>
<path d="M17.29 13.9202H19.27V15.9002C19.27 16.6902 19.91 17.3302 20.7 17.3302H23.87C24.66 17.3302 25.3 16.6902 25.3 15.9002V13.9202H27.28C28.07 13.9202 28.71 13.2802 28.71 12.4902V9.32024C28.71 8.53024 28.07 7.89023 27.28 7.89023H25.3V5.92023C25.3 5.13023 24.66 4.49023 23.87 4.49023H20.7C19.91 4.49023 19.27 5.13023 19.27 5.92023V7.89023H17.29C16.5 7.89023 15.86 8.53024 15.86 9.32024V12.4902C15.86 13.2802 16.5 13.9202 17.29 13.9202ZM16.85 9.32024C16.85 9.08024 17.05 8.88023 17.29 8.88023H20.26V5.91023C20.26 5.67023 20.46 5.47023 20.7 5.47023H23.87C24.11 5.47023 24.31 5.67023 24.31 5.91023V8.88023H27.28C27.52 8.88023 27.72 9.08024 27.72 9.32024V12.4902C27.72 12.7302 27.52 12.9302 27.28 12.9302H24.31V15.9002C24.31 16.1402 24.11 16.3402 23.87 16.3402H20.7C20.46 16.3402 20.26 16.1402 20.26 15.9002V12.9302H17.29C17.05 12.9302 16.85 12.7302 16.85 12.4902V9.32024Z" fill="#222E4C"/>
<path d="M44.03 61.7395L42.27 52.1895C41.16 46.1495 35.89 41.7695 29.74 41.7695H15.16C9.02001 41.7695 3.75001 46.1495 2.63001 52.1895L0.870003 61.7395C0.600003 63.2095 0.99002 64.7095 1.95002 65.8595C2.91002 67.0095 4.31 67.6695 5.8 67.6695H39.1C40.59 67.6695 42 67.0095 42.95 65.8695C43.91 64.7195 44.3 63.2195 44.03 61.7495V61.7395ZM39.78 63.2195C39.61 63.4195 39.37 63.5395 39.1 63.5395H5.8C5.54 63.5395 5.29 63.4195 5.12 63.2195C4.95 63.0195 4.88 62.7595 4.93 62.4995L6.69001 52.9495C7.44001 48.8695 11 45.9095 15.15 45.9095H29.73C33.88 45.9095 37.44 48.8695 38.19 52.9495L39.95 62.4995C40 62.7595 39.93 63.0195 39.76 63.2195H39.78Z" fill="#222E4C"/>
</svg>
