<svg width="70" height="70" viewBox="0 0 70 70" fill="none" xmlns="http://www.w3.org/2000/svg">
<path d="M12.97 57.269C12.97 55.579 11.6 54.209 9.90999 54.209C8.21999 54.209 6.85999 55.579 6.85999 57.269C6.85999 58.959 8.22999 60.319 9.90999 60.319C11.59 60.319 12.97 58.949 12.97 57.269Z" fill="#6D9AC2"/>
<path d="M63.24 60.7383C62.17 60.7383 61.31 61.6083 61.31 62.6783C61.31 63.7483 62.18 64.6183 63.24 64.6183C64.3 64.6183 65.18 63.7483 65.18 62.6783C65.18 61.6083 64.31 60.7383 63.24 60.7383Z" fill="#D89B86"/>
<path d="M54.07 15.2589C56.54 15.2589 58.55 13.2488 58.55 10.7788C58.55 8.30884 56.54 6.29883 54.07 6.29883C51.6 6.29883 49.59 8.30884 49.59 10.7788C49.59 13.2488 51.6 15.2589 54.07 15.2589Z" fill="#6D9AC2"/>
<path d="M15.99 10.7789C15.99 7.6589 13.46 5.12891 10.34 5.12891C7.22 5.12891 4.69 7.6589 4.69 10.7789C4.69 13.8989 7.22 16.4289 10.34 16.4289C13.46 16.4289 15.99 13.8989 15.99 10.7789Z" fill="#D89B86"/>
<path d="M32.72 48.5583C37.91 48.5583 42.12 44.3383 42.12 39.1483C42.12 33.9583 37.9 29.7383 32.72 29.7383C27.54 29.7383 23.32 33.9583 23.32 39.1483C23.32 44.3383 27.54 48.5583 32.72 48.5583Z" fill="#6D9AC2"/>
<path d="M63.24 56.0492C61.4 56.0492 59.74 56.7992 58.54 58.0192L43.15 48.6092C45.42 46.1092 46.82 42.7992 46.82 39.1592C46.82 35.1692 45.14 31.5592 42.47 28.9992L49.7 18.7992C51.01 19.5192 52.48 19.9592 54.08 19.9592C59.14 19.9592 63.25 15.8492 63.25 10.7892C63.25 5.72922 59.13 1.6192 54.08 1.6192C49.03 1.6192 44.91 5.72922 44.91 10.7892C44.91 13.4092 46.03 15.7592 47.79 17.4292L40.64 27.5092C38.38 25.9692 35.66 25.0692 32.72 25.0692C29.78 25.0692 27.06 25.9692 24.8 27.5092L17.91 17.7892C19.62 15.9492 20.69 13.4992 20.69 10.7892C20.69 5.08922 16.05 0.449219 10.35 0.449219C4.65001 0.449219 0.0100098 5.08922 0.0100098 10.7892C0.0100098 16.4892 4.65001 21.1292 10.35 21.1292C12.49 21.1292 14.49 20.4692 16.14 19.3492L22.98 28.9992C20.3 31.5692 18.63 35.1692 18.63 39.1592C18.63 42.7992 20.03 46.1092 22.3 48.6092L15.96 52.4792C14.54 50.6992 12.38 49.5292 9.92001 49.5292C5.65001 49.5292 2.17001 53.0092 2.17001 57.2792C2.17001 61.5492 5.64001 65.0292 9.92001 65.0292C14.2 65.0292 17.67 61.5592 17.67 57.2792C17.67 56.2992 17.47 55.3692 17.14 54.5092L24.08 50.2692C26.47 52.1392 29.47 53.2592 32.73 53.2592C35.99 53.2592 38.99 52.1392 41.38 50.2692L57.23 59.9592C56.85 60.7892 56.63 61.7092 56.63 62.6792C56.63 66.3392 59.6 69.3092 63.26 69.3092C66.92 69.3092 69.89 66.3392 69.89 62.6792C69.89 59.0192 66.92 56.0492 63.26 56.0492H63.24ZM54.07 6.3092C56.54 6.3092 58.55 8.31922 58.55 10.7892C58.55 13.2592 56.54 15.2692 54.07 15.2692C51.6 15.2692 49.59 13.2592 49.59 10.7892C49.59 8.31922 51.6 6.3092 54.07 6.3092ZM10.34 16.4392C7.23001 16.4392 4.69001 13.9092 4.69001 10.7892C4.69001 7.66922 7.22001 5.13922 10.34 5.13922C13.46 5.13922 15.99 7.66922 15.99 10.7892C15.99 13.9092 13.46 16.4392 10.34 16.4392ZM9.92001 60.3392C8.24001 60.3392 6.87001 58.9692 6.87001 57.2892C6.87001 55.6092 8.24001 54.2292 9.92001 54.2292C11.6 54.2292 12.98 55.5992 12.98 57.2892C12.98 58.9792 11.61 60.3392 9.92001 60.3392ZM32.72 48.5692C27.53 48.5692 23.32 44.3492 23.32 39.1592C23.32 33.9692 27.54 29.7492 32.72 29.7492C37.9 29.7492 42.12 33.9692 42.12 39.1592C42.12 44.3492 37.9 48.5692 32.72 48.5692ZM63.24 64.6192C62.17 64.6192 61.31 63.7492 61.31 62.6792C61.31 61.6092 62.18 60.7392 63.24 60.7392C64.3 60.7392 65.18 61.6092 65.18 62.6792C65.18 63.7492 64.31 64.6192 63.24 64.6192Z" fill="#222E4C"/>
</svg>
