<svg width="61" height="61" viewBox="0 0 61 61" fill="none" xmlns="http://www.w3.org/2000/svg">
<path d="M44.43 11.4603H48.8V15.8403C48.8 15.9703 48.91 16.0803 49.04 16.0803H53.34C53.47 16.0803 53.58 15.9703 53.58 15.8403V11.4603H57.95C58.08 11.4603 58.19 11.3503 58.19 11.2203V6.92031C58.19 6.79031 58.08 6.68031 57.95 6.68031H53.58V2.31031C53.58 2.18031 53.47 2.07031 53.34 2.07031H49.04C48.91 2.07031 48.8 2.18031 48.8 2.31031V6.68031H44.43C44.3 6.68031 44.19 6.79031 44.19 6.92031V11.2203C44.19 11.3503 44.3 11.4603 44.43 11.4603Z" fill="#D89B86"/>
<path d="M54.84 32.4998C53.89 32.4998 53.11 33.2798 53.11 34.2298V41.3098C53.11 42.4398 52.2 43.3598 51.06 43.3598H9.60001C8.47001 43.3598 7.55 42.4398 7.55 41.3098V18.5698C7.55 17.6198 6.77 16.8398 5.82 16.8398C4.87 16.8398 4.09 17.6198 4.09 18.5698V54.8199C4.09 55.7699 4.87 56.5499 5.82 56.5499C6.77 56.5499 7.55 55.7699 7.55 54.8199V48.8598C7.55 47.7298 8.46001 46.8098 9.60001 46.8098H51.06C52.19 46.8098 53.11 47.7298 53.11 48.8598V54.8199C53.11 55.7699 53.89 56.5499 54.84 56.5499C55.79 56.5499 56.57 55.7699 56.57 54.8199V34.2298C56.57 33.2798 55.79 32.4998 54.84 32.4998Z" fill="#6D9AC2"/>
<path d="M44.43 13.4998H46.76V15.8298C46.76 17.0898 47.79 18.1198 49.05 18.1198H53.35C54.61 18.1198 55.64 17.0898 55.64 15.8298V13.4998H57.97C59.23 13.4998 60.26 12.4698 60.26 11.2098V6.90977C60.26 5.64977 59.24 4.61977 57.97 4.61977H55.64V2.29977C55.64 1.03977 54.61 0.00976562 53.35 0.00976562H49.05C47.79 0.00976562 46.76 1.03977 46.76 2.29977V4.61977H44.43C43.17 4.61977 42.14 5.64977 42.14 6.90977V11.2098C42.14 12.4698 43.17 13.4998 44.43 13.4998ZM44.19 6.90977C44.19 6.77977 44.3 6.66976 44.43 6.66976H48.8V2.29977C48.8 2.16977 48.91 2.05976 49.04 2.05976H53.34C53.47 2.05976 53.58 2.16977 53.58 2.29977V6.66976H57.95C58.08 6.66976 58.19 6.77977 58.19 6.90977V11.2098C58.19 11.3398 58.08 11.4498 57.95 11.4498H53.58V15.8298C53.58 15.9598 53.47 16.0698 53.34 16.0698H49.04C48.91 16.0698 48.8 15.9598 48.8 15.8298V11.4498H44.43C44.3 11.4498 44.19 11.3398 44.19 11.2098V6.90977Z" fill="#222E4C"/>
<path d="M54.84 28.41C51.63 28.41 49.02 31.02 49.02 34.23V39.26H11.65V18.57C11.65 15.36 9.04001 12.75 5.83001 12.75C2.62001 12.75 0.0100098 15.36 0.0100098 18.57V54.82C0.0100098 58.03 2.62001 60.64 5.83001 60.64C9.04001 60.64 11.65 58.03 11.65 54.82V50.91H49.02V54.82C49.02 58.03 51.63 60.64 54.84 60.64C58.05 60.64 60.67 58.03 60.67 54.82V34.23C60.67 31.02 58.06 28.41 54.84 28.41ZM56.57 54.83C56.57 55.78 55.79 56.56 54.84 56.56C53.89 56.56 53.11 55.78 53.11 54.83V48.87C53.11 47.74 52.2 46.82 51.06 46.82H9.60001C8.47001 46.82 7.55001 47.74 7.55001 48.87V54.83C7.55001 55.78 6.77001 56.56 5.82001 56.56C4.87001 56.56 4.09 55.78 4.09 54.83V18.58C4.09 17.63 4.87001 16.85 5.82001 16.85C6.77001 16.85 7.55001 17.63 7.55001 18.58V41.32C7.55001 42.45 8.46001 43.37 9.60001 43.37H51.06C52.19 43.37 53.11 42.45 53.11 41.32V34.24C53.11 33.29 53.89 32.51 54.84 32.51C55.79 32.51 56.57 33.29 56.57 34.24V54.83Z" fill="#222E4C"/>
<path d="M23.2 37.1991C24.6 35.7991 23.38 32.3191 20.49 29.4291C17.6 26.5291 14.11 25.3191 12.72 26.7191C11.32 28.1191 12.54 31.5991 15.43 34.4891C18.32 37.3891 21.81 38.5991 23.2 37.1991Z" fill="#222E4C"/>
</svg>
