<svg width="56" height="69" viewBox="0 0 56 69" fill="none" xmlns="http://www.w3.org/2000/svg">
<path d="M4.94 58.041C4.27 58.041 3.66 58.671 3.12 59.571C2.55 61.001 2.10999 62.711 2.10999 63.831C2.10999 65.391 3.38 66.661 4.94 66.661C6.5 66.661 7.76999 65.391 7.76999 63.831C7.76999 62.721 7.34 61.041 6.78 59.611C6.24 58.701 5.62001 58.041 4.95001 58.041H4.94Z" fill="#D89B86"/>
<path d="M11.12 43.0503C10.49 43.7803 10.05 44.6603 9.85001 45.6103L9.28 48.2503L11.31 47.8203C11.86 47.7003 12.37 47.4503 12.79 47.0903L27.6 34.3203H18.66L11.13 43.0603L11.12 43.0503Z" fill="#D89B86"/>
<path d="M44.71 3.13891C41.13 3.43891 37.89 3.82891 34.19 7.43891C33.27 8.33891 30.56 11.0689 30.56 11.0689L45.46 25.9689L49 22.4189C53.57 17.8489 53.57 10.3989 49 5.81891C47.79 4.60891 46.31 3.71891 44.71 3.12891V3.13891ZM47.88 8.37891C47.49 9.51891 46.24 10.1189 45.1 9.72891C41.59 8.51891 39.43 10.8289 39.2 11.0989C38.76 11.5889 38.16 11.8489 37.54 11.8489C37.04 11.8489 36.53 11.6789 36.12 11.3289C35.21 10.5489 35.09 9.18891 35.86 8.26891C36.03 8.06891 40.07 3.35891 46.53 5.59891C47.67 5.98891 48.28 7.23891 47.88 8.37891Z" fill="#6D9AC2"/>
<path d="M51.65 4.58984C49.11 2.04984 45.59 0.589844 42 0.589844C38.41 0.589844 34.93 2.00984 32.35 4.58984L28.88 8.05984C28.12 8.11984 27.38 8.39985 26.81 8.96985C25.53 10.2498 25.53 12.3098 26.81 13.5898L27.68 14.4698L5.45001 40.2598C4.55001 41.2998 3.92001 42.5599 3.63001 43.9099L2.39999 49.6599C2.13999 50.8399 2.49999 52.0499 3.35999 52.9099C4.02999 53.5699 4.91001 53.9398 5.85001 53.9398L12.35 52.6198C13.69 52.3298 14.96 51.6998 15.99 50.8098L41.79 28.5698L42.67 29.4498C43.31 30.0898 44.14 30.4099 44.98 30.4099C45.82 30.4099 46.65 30.0898 47.29 29.4498C47.86 28.8798 48.14 28.1398 48.2 27.3898L51.67 23.9198C56.99 18.5998 56.99 9.92985 51.67 4.60985L51.65 4.58984ZM12.79 47.0898C12.37 47.4498 11.86 47.7099 11.31 47.8199L7.63001 48.6098L8.42001 44.9298C8.53001 44.3898 8.78999 43.8798 9.14999 43.4498L31.15 17.9298L38.31 25.0798L12.79 47.0798V47.0898ZM48.19 20.4398L45.55 23.0898L34.43 11.9698L33.17 10.6998L35.81 8.04985C37.47 6.39985 39.66 5.48985 42 5.48985C43.03 5.48985 44.03 5.69985 44.98 6.04985C46.17 6.48985 47.28 7.14985 48.18 8.04985C51.6 11.4599 51.6 17.0198 48.18 20.4298L48.19 20.4398Z" fill="#222E4C"/>
<path d="M4.94 55.3496C2.11 55.3496 0.480011 61.7896 0.480011 63.8296C0.480011 66.2896 2.48 68.2896 4.94 68.2896C7.4 68.2896 9.39999 66.2896 9.39999 63.8296C9.39999 61.7896 7.77 55.3496 4.94 55.3496ZM4.94 66.6596C3.38 66.6596 2.10999 65.3896 2.10999 63.8296C2.10999 61.5896 3.86 56.9796 4.94 56.9796C6.02 56.9796 7.76999 61.5896 7.76999 63.8296C7.76999 65.3896 6.5 66.6596 4.94 66.6596Z" fill="#222E4C"/>
</svg>
