<svg width="66" height="69" viewBox="0 0 66 69" fill="none" xmlns="http://www.w3.org/2000/svg">
<path d="M49.44 40.3883H41.34C40.09 40.3883 39.07 39.3783 39.07 38.1183V30.0283C39.07 29.5883 38.71 29.2383 38.28 29.2383H27.9C27.46 29.2383 27.1 29.5983 27.1 30.0283V38.1183C27.1 39.3683 26.09 40.3883 24.83 40.3883H16.74C16.31 40.3883 15.95 40.7483 15.95 41.1783V51.5683C15.95 51.9983 16.31 52.3583 16.74 52.3583H24.83C26.08 52.3583 27.1 53.3683 27.1 54.6283V62.7383C27.1 63.1683 27.47 63.5283 27.9 63.5283H38.28C38.72 63.5283 39.07 63.1783 39.07 62.7383V54.6283C39.07 53.3783 40.08 52.3583 41.34 52.3583H49.44C49.87 52.3583 50.23 51.9983 50.23 51.5683V41.1783C50.23 40.7483 49.87 40.3883 49.44 40.3883Z" fill="#D89B86"/>
<path d="M7.88 20.8384H13.46C15.06 20.8384 16.36 19.6184 16.54 18.0684H4.79999C4.97999 19.6184 6.28 20.8384 7.88 20.8384Z" fill="#6D9AC2"/>
<path d="M48.41 4.71875H17.76C11.25 4.71875 5.85001 9.53875 4.92001 15.7988H16.93C17.72 13.5688 19.83 11.9688 22.33 11.9688H43.85C46.35 11.9688 48.45 13.5788 49.25 15.7988H61.26C60.33 9.53875 54.93 4.71875 48.42 4.71875H48.41Z" fill="#6D9AC2"/>
<path d="M52.71 20.8384H58.29C59.89 20.8384 61.19 19.6184 61.37 18.0684H49.63C49.81 19.6184 51.11 20.8384 52.71 20.8384Z" fill="#6D9AC2"/>
<path d="M49.44 35.8587H43.6V30.0387C43.6 27.1087 41.21 24.7188 38.28 24.7188H27.9C24.96 24.7188 22.57 27.1087 22.57 30.0387V35.8587H16.74C13.8 35.8587 11.42 38.2487 11.42 41.1787V51.5688C11.42 54.4988 13.81 56.8887 16.74 56.8887H22.57V62.7287C22.57 65.6587 24.96 68.0488 27.9 68.0488H38.28C41.22 68.0488 43.6 65.6587 43.6 62.7287V56.8887H49.44C52.37 56.8887 54.76 54.4988 54.76 51.5688V41.1787C54.76 38.2487 52.38 35.8587 49.44 35.8587ZM50.23 51.5688C50.23 51.9988 49.87 52.3587 49.44 52.3587H41.34C40.09 52.3587 39.07 53.3688 39.07 54.6288V62.7388C39.07 63.1688 38.71 63.5287 38.28 63.5287H27.9C27.47 63.5287 27.1 63.1688 27.1 62.7388V54.6288C27.1 53.3788 26.09 52.3587 24.83 52.3587H16.74C16.31 52.3587 15.95 51.9988 15.95 51.5688V41.1787C15.95 40.7487 16.31 40.3887 16.74 40.3887H24.83C26.08 40.3887 27.1 39.3787 27.1 38.1187V30.0287C27.1 29.5887 27.46 29.2388 27.9 29.2388H38.28C38.72 29.2388 39.07 29.5987 39.07 30.0287V38.1187C39.07 39.3687 40.08 40.3887 41.34 40.3887H49.44C49.87 40.3887 50.23 40.7487 50.23 41.1787V51.5688Z" fill="#222E4C"/>
<path d="M48.41 0.189453H17.76C8.09001 0.189453 0.230011 8.04945 0.230011 17.7195C0.230011 21.9395 3.66001 25.3695 7.88 25.3695H13.46C17.68 25.3695 21.11 21.9395 21.11 17.7195C21.11 17.0495 21.66 16.4995 22.33 16.4995H43.85C44.52 16.4995 45.07 17.0495 45.07 17.7195C45.07 21.9395 48.5 25.3695 52.72 25.3695H58.3C62.52 25.3695 65.95 21.9395 65.95 17.7195C65.95 8.05945 58.09 0.189453 48.42 0.189453H48.41ZM58.29 20.8394H52.71C51.11 20.8394 49.81 19.6195 49.63 18.0695H61.37C61.19 19.6195 59.89 20.8394 58.29 20.8394ZM13.46 20.8394H7.88C6.28 20.8394 4.97999 19.6195 4.79999 18.0695H16.54C16.36 19.6195 15.06 20.8394 13.46 20.8394ZM43.84 11.9695H22.32C19.82 11.9695 17.72 13.5795 16.92 15.7995H4.91C5.84 9.53945 11.24 4.71945 17.75 4.71945H48.4C54.91 4.71945 60.31 9.53945 61.24 15.7995H49.23C48.44 13.5695 46.33 11.9695 43.83 11.9695H43.84Z" fill="#222E4C"/>
</svg>
