<svg width="45" height="70" viewBox="0 0 45 70" fill="none" xmlns="http://www.w3.org/2000/svg">
<path d="M12.55 51.7708V58.8908L18.84 58.8808V65.5308L25.98 65.5208V58.8708H32.25V51.7508L25.96 51.7608L25.94 39.7308L27.36 39.3108C30.23 38.4708 32.88 36.8908 35 34.7608C38.37 31.3808 40.22 26.9008 40.21 22.1408C40.19 12.2908 32.16 4.28082 22.31 4.30082C17.55 4.30082 13.06 6.18083 9.69001 9.56083C6.32001 12.9508 4.46001 17.4308 4.47001 22.2008C4.49001 30.0908 9.80001 37.1308 17.39 39.3208L18.82 39.7308L18.84 51.7608H12.56L12.55 51.7708ZM11.59 22.1908C11.59 19.3208 12.7 16.6208 14.73 14.5908C16.76 12.5508 19.45 11.4308 22.32 11.4308C28.25 11.4208 33.08 16.2308 33.09 22.1608C33.09 25.0308 31.98 27.7308 29.95 29.7608C27.92 31.8008 25.23 32.9208 22.36 32.9208C16.43 32.9308 11.6 28.1208 11.59 22.1908Z" fill="#D89B86"/>
<path d="M6.88 6.76987C11 2.63987 16.47 0.349874 22.29 0.339874C34.32 0.319874 44.13 10.0899 44.15 22.1299C44.16 27.9399 41.9 33.4199 37.79 37.5499C35.55 39.7999 32.84 41.5399 29.88 42.6299V47.7899H32.87C33.75 47.7899 34.58 48.1299 35.2 48.7499C35.82 49.3699 36.17 50.1999 36.17 51.0799L36.19 59.5299C36.19 61.2799 34.65 62.8199 32.91 62.8299H29.92V66.1899C29.92 67.9599 28.39 69.4799 26.64 69.4899H18.19C17.31 69.5099 16.48 69.1699 15.86 68.5399C15.24 67.9199 14.89 67.0899 14.89 66.2099V62.8599H11.9C11.02 62.8599 10.19 62.5199 9.57001 61.8999C8.95001 61.2799 8.60001 60.4499 8.60001 59.5699L8.58 51.1299C8.58 49.3699 10.11 47.8299 11.87 47.8299H14.85V42.6599C6.35001 39.5499 0.52 31.3399 0.5 22.2099C0.5 16.3899 2.75 10.9099 6.87 6.76987H6.88ZM34.99 34.7599C38.36 31.3799 40.21 26.8999 40.2 22.1399C40.18 12.2899 32.15 4.27987 22.3 4.29987C17.54 4.29987 13.05 6.17988 9.67999 9.55988C6.30999 12.9499 4.45001 17.4299 4.46001 22.1999C4.48001 30.0899 9.79 37.1299 17.38 39.3199L18.81 39.7299L18.83 51.7599H12.55L12.56 58.8899H18.84L18.85 65.5299H25.97L25.96 58.8699H32.24L32.23 51.7399H25.95L25.93 39.7199L27.35 39.2999C30.22 38.4599 32.87 36.8799 34.99 34.7499V34.7599ZM14.72 14.5899C16.75 12.5499 19.44 11.4299 22.31 11.4299C28.24 11.4199 33.07 16.2299 33.08 22.1599C33.08 25.0299 31.97 27.7299 29.94 29.7599C27.91 31.7999 25.22 32.9199 22.35 32.9199C16.42 32.9299 11.59 28.1199 11.58 22.1899C11.58 19.3199 12.69 16.6199 14.72 14.5899ZM27.14 26.9699C28.42 25.6799 29.13 23.9799 29.12 22.1699C29.12 18.4299 26.06 15.3799 22.32 15.3899C18.7 15.3899 15.53 18.5699 15.54 22.1899C15.54 25.9399 18.6 28.9799 22.34 28.9699C24.15 28.9699 25.85 28.2599 27.14 26.9699Z" fill="#222E4C"/>
</svg>
