<svg width="41" height="62" viewBox="0 0 41 62" fill="none" xmlns="http://www.w3.org/2000/svg">
<path d="M26.95 7.82141L22.24 7.79141C22.75 7.22141 23.07 6.48141 23.07 5.66141C23.07 3.88141 21.63 2.44141 19.85 2.44141C18.07 2.44141 16.63 3.88141 16.63 5.66141C16.63 6.47141 16.94 7.20141 17.43 7.76141L13.64 7.73141L9.95001 14.9014L10.09 15.1314H30.35C30.41 15.1314 30.46 15.1014 30.49 15.0514L26.96 7.81141L26.95 7.82141Z" fill="#D89B86"/>
<path d="M34.92 12.0605H30.5L31.64 14.3305C31.86 14.7805 31.84 15.3105 31.58 15.7405C31.32 16.1705 30.85 16.4305 30.35 16.4305H10.09C9.59 16.4305 9.11999 16.1705 8.85999 15.7405C8.59999 15.3105 8.56999 14.7805 8.79999 14.3305L9.94 12.0605H5.53C3.75 12.0605 2.31 13.5005 2.31 15.2805V56.2205C2.31 58.0005 3.75 59.4405 5.53 59.4405H34.94C36.72 59.4405 38.16 58.0005 38.16 56.2205V15.2805C38.16 13.5005 36.72 12.0605 34.94 12.0605H34.92Z" fill="#6D9AC2"/>
<path d="M34.92 10.1305H31.7L29.83 6.38047C29.25 5.23047 28.1 4.51047 26.81 4.51047H25.26C24.87 2.09047 22.76 0.230469 20.23 0.230469C17.7 0.230469 15.59 2.09047 15.19 4.51047H13.64C12.35 4.51047 11.2 5.23047 10.62 6.38047L8.75 10.1305H5.53C2.69 10.1305 0.380005 12.4405 0.380005 15.2805V56.2205C0.380005 59.0605 2.69 61.3705 5.53 61.3705H34.94C37.78 61.3705 40.09 59.0605 40.09 56.2205V15.2805C40.09 12.4405 37.78 10.1305 34.94 10.1305H34.92ZM13.93 8.38047H17.26C17.89 8.38047 18.49 8.07047 18.85 7.55047C19.21 7.03047 19.29 6.37047 19.07 5.77047C19.01 5.61047 18.98 5.47047 18.98 5.34047C18.98 4.66047 19.54 4.10047 20.22 4.10047C20.9 4.10047 21.46 4.66047 21.46 5.34047C21.46 5.47047 21.43 5.61047 21.37 5.78047C21.15 6.37047 21.23 7.04047 21.59 7.55047C21.95 8.07047 22.54 8.38047 23.17 8.38047H26.5L27.38 10.1305L29.56 14.4905H10.86L13.92 8.37047L13.93 8.38047ZM36.22 56.2305C36.22 56.9405 35.64 57.5205 34.93 57.5205H5.51999C4.80999 57.5205 4.23001 56.9405 4.23001 56.2305V15.2805C4.23001 14.5705 4.80999 13.9905 5.51999 13.9905H6.85999C6.83999 14.0505 6.83999 14.1005 6.82999 14.1605C6.79999 14.2605 6.78999 14.3605 6.76999 14.4605C6.73999 14.6305 6.73001 14.7905 6.73001 14.9605C6.73001 15.0605 6.73001 15.1605 6.73001 15.2605C6.74001 15.4405 6.78001 15.6105 6.82001 15.7805C6.84001 15.8605 6.85 15.9505 6.88 16.0305C6.96 16.2805 7.06999 16.5305 7.20999 16.7605C7.82999 17.7605 8.89999 18.3605 10.08 18.3605H30.34C31.52 18.3605 32.59 17.7605 33.21 16.7605C33.35 16.5305 33.46 16.2805 33.54 16.0305C33.57 15.9505 33.58 15.8605 33.6 15.7805C33.64 15.6105 33.68 15.4305 33.69 15.2605C33.69 15.1605 33.69 15.0605 33.69 14.9605C33.69 14.7905 33.67 14.6305 33.65 14.4605C33.63 14.3605 33.62 14.2605 33.59 14.1705C33.58 14.1105 33.57 14.0605 33.56 14.0005H34.9C35.61 14.0005 36.19 14.5805 36.19 15.2905V56.2205L36.22 56.2305Z" fill="#222E4C"/>
<path d="M10.01 25.1113C8.81001 25.1113 7.84 26.0813 7.84 27.2813C7.84 28.4813 8.81001 29.4513 10.01 29.4513C11.21 29.4513 12.18 28.4813 12.18 27.2813C12.18 26.0813 11.21 25.1113 10.01 25.1113Z" fill="#222E4C"/>
<path d="M31.35 25.3496H17.13C16.06 25.3496 15.2 26.2096 15.2 27.2796C15.2 28.3496 16.06 29.2096 17.13 29.2096H31.35C32.42 29.2096 33.28 28.3496 33.28 27.2796C33.28 26.2096 32.42 25.3496 31.35 25.3496Z" fill="#222E4C"/>
<path d="M10.01 35.4102C8.81001 35.4102 7.84 36.3802 7.84 37.5802C7.84 38.7802 8.81001 39.7502 10.01 39.7502C11.21 39.7502 12.18 38.7802 12.18 37.5802C12.18 36.3802 11.21 35.4102 10.01 35.4102Z" fill="#222E4C"/>
<path d="M31.35 35.6406H17.13C16.06 35.6406 15.2 36.5006 15.2 37.5706C15.2 38.6406 16.06 39.5006 17.13 39.5006H31.35C32.42 39.5006 33.28 38.6406 33.28 37.5706C33.28 36.5006 32.42 35.6406 31.35 35.6406Z" fill="#222E4C"/>
<path d="M10.01 45.7012C8.81001 45.7012 7.84 46.6712 7.84 47.8712C7.84 49.0712 8.81001 50.0412 10.01 50.0412C11.21 50.0412 12.18 49.0712 12.18 47.8712C12.18 46.6712 11.21 45.7012 10.01 45.7012Z" fill="#222E4C"/>
<path d="M31.35 45.9414H17.13C16.06 45.9414 15.2 46.8014 15.2 47.8714C15.2 48.9414 16.06 49.8014 17.13 49.8014H31.35C32.42 49.8014 33.28 48.9414 33.28 47.8714C33.28 46.8014 32.42 45.9414 31.35 45.9414Z" fill="#222E4C"/>
</svg>
