<svg width="58" height="64" viewBox="0 0 58 64" fill="none" xmlns="http://www.w3.org/2000/svg">
<path d="M29.1299 49.7907C27.6199 52.0507 25.0899 53.4007 22.3699 53.4007H8.20994C6.40994 53.4007 4.93994 54.8707 4.93994 56.6707C4.93994 58.4707 6.39994 59.9407 8.20994 59.9407H22.3799C27.2799 59.9407 31.8299 57.5107 34.5599 53.4407C37.2899 49.3707 37.7999 44.2307 35.9399 39.7007L28.2399 20.9907C27.1999 18.4807 27.4899 15.6307 28.9999 13.3707C30.5099 11.1107 33.0399 9.76071 35.7599 9.76071H50.2499C52.0499 9.76071 53.5199 8.29069 53.5199 6.49069C53.5199 4.69069 52.0499 3.2207 50.2499 3.2207H35.7599C30.8599 3.2207 26.3099 5.6507 23.5799 9.7207C20.8499 13.7907 20.3399 18.9307 22.1999 23.4607L29.8999 42.1707C30.9299 44.6907 30.6499 47.5407 29.1299 49.7907Z" fill="#6D9AC2"/>
<path d="M54.55 21.0313C54.69 19.2313 53.34 17.6613 51.54 17.5313H51.28C49.56 17.5213 48.16 18.8213 48.03 20.5413C47.82 23.2513 46.29 25.6613 43.92 27.0013C42.35 27.8913 41.8 29.8813 42.68 31.4513C43.53 32.9613 45.61 33.5513 47.13 32.6913C51.4 30.2813 54.17 25.9213 54.54 21.0413L54.55 21.0313Z" fill="#D89B86"/>
<path d="M3.49997 42.121C3.35997 43.921 4.70997 45.491 6.50997 45.621H6.76997C8.45997 45.621 9.88997 44.301 10.02 42.611C10.23 39.901 11.76 37.491 14.13 36.151C14.89 35.721 15.44 35.021 15.67 34.181C15.9 33.341 15.8 32.461 15.37 31.701C14.79 30.681 13.7 30.041 12.52 30.041C11.96 30.041 11.41 30.191 10.92 30.461C6.64997 32.871 3.87997 37.231 3.50997 42.111L3.49997 42.121Z" fill="#D89B86"/>
<path d="M32.07 21.8498H38.07C38.66 21.8498 39.14 21.3698 39.14 20.7798C39.14 20.1898 38.66 19.7097 38.07 19.7097H31.19C30.59 18.1997 30.76 16.4997 31.66 15.1497C32.58 13.7797 34.1 12.9698 35.75 12.9698H50.24C53.81 12.9698 56.72 10.0597 56.72 6.48975C56.72 2.91975 53.81 0.00976562 50.24 0.00976562H35.75C29.78 0.00976562 24.23 2.96976 20.9 7.93976C17.58 12.8998 16.95 19.1698 19.22 24.6898L26.06 41.2997H19.97C19.38 41.2997 18.9 41.7798 18.9 42.3698C18.9 42.9598 19.38 43.4398 19.97 43.4398H26.93C27.53 44.9498 27.36 46.6498 26.45 47.9998C25.54 49.3698 24.01 50.1797 22.36 50.1797H8.20998C4.63998 50.1797 1.72998 53.0898 1.72998 56.6598C1.72998 60.2298 4.63998 63.1398 8.20998 63.1398H22.38C28.35 63.1398 33.91 60.1797 37.23 55.2097C40.55 50.2497 41.18 43.9797 38.91 38.4597L32.08 21.8498H32.07ZM34.56 53.4297C31.83 57.4997 27.27 59.9297 22.38 59.9297H8.20998C6.40998 59.9297 4.93998 58.4598 4.93998 56.6598C4.93998 54.8598 6.39998 53.3898 8.20998 53.3898H22.38C25.1 53.3898 27.62 52.0398 29.14 49.7798C30.65 47.5198 30.94 44.6798 29.91 42.1598L22.21 23.4498C20.35 18.9198 20.86 13.7797 23.59 9.70975C26.32 5.63975 30.88 3.20975 35.77 3.20975H50.26C52.06 3.20975 53.53 4.67977 53.53 6.47977C53.53 8.27977 52.06 9.74976 50.26 9.74976H35.77C33.05 9.74976 30.53 11.0997 29.01 13.3597C27.5 15.6197 27.21 18.4698 28.25 20.9798L35.95 39.6898C37.81 44.2198 37.3 49.3597 34.57 53.4297H34.56Z" fill="#222E4C"/>
<path d="M51.79 14.3199C48.17 14.0299 45.1 16.7699 44.83 20.2899C44.71 21.9299 43.78 23.3899 42.34 24.1999C39.23 25.9599 38.13 29.9199 39.89 33.0299C41.04 35.0599 43.2 36.3199 45.53 36.3199C46.64 36.3199 47.74 36.0299 48.71 35.4799C53.91 32.5399 57.29 27.2299 57.74 21.2799C58.01 17.7199 55.33 14.5999 51.77 14.3299L51.79 14.3199ZM47.14 32.6799C45.62 33.5399 43.54 32.9499 42.69 31.4399C41.81 29.8699 42.36 27.8699 43.93 26.9899C46.3 25.6499 47.83 23.2399 48.04 20.5299C48.17 18.8099 49.56 17.5099 51.29 17.5099H51.55C53.35 17.6599 54.7 19.2299 54.56 21.0299C54.19 25.9099 51.42 30.2699 47.15 32.6799H47.14Z" fill="#222E4C"/>
<path d="M6.27999 48.8301C6.44999 48.8401 6.59999 48.8501 6.75999 48.8501C10.12 48.8501 12.96 46.2201 13.22 42.8601C13.34 41.2201 14.27 39.7601 15.7 38.9501C17.21 38.1001 18.29 36.7101 18.76 35.0401C19.22 33.3701 19.01 31.6201 18.16 30.1201C17.01 28.0901 14.85 26.8301 12.51 26.8301C11.4 26.8301 10.3 27.1201 9.32999 27.6701C4.12999 30.6101 0.749987 35.9201 0.299987 41.8701C0.0299873 45.4301 2.69999 48.5501 6.27999 48.8201V48.8301ZM10.91 30.4701C11.4 30.1901 11.95 30.0501 12.51 30.0501C13.69 30.0501 14.78 30.6901 15.36 31.7101C15.79 32.4701 15.9 33.3501 15.66 34.1901C15.43 35.0301 14.88 35.7301 14.12 36.1601C11.75 37.5001 10.22 39.9101 10.01 42.6201C9.87999 44.3101 8.44999 45.6401 6.75999 45.6401H6.49999C4.70999 45.4901 3.35999 43.9201 3.48999 42.1301C3.85999 37.2401 6.62999 32.8901 10.9 30.4801L10.91 30.4701Z" fill="#222E4C"/>
</svg>
