<svg width="66" height="61" viewBox="0 0 66 61" fill="none" xmlns="http://www.w3.org/2000/svg">
<path d="M59.26 3.35938H6.97999C4.45999 3.35938 2.42999 5.39938 2.42999 7.90938V39.4894C2.42999 42.0094 4.46999 44.0494 6.97999 44.0494H26.15L24.4 58.8494H41.84L40.09 44.0494H59.26C61.78 44.0494 63.82 42.0094 63.82 39.4894V7.90938C63.82 5.38938 61.78 3.35938 59.26 3.35938Z" fill="#6D9AC2"/>
<path d="M63.57 10.6289H2.65997V36.7889H63.57V10.6289Z" fill="white"/>
<path d="M35.18 31.4287H31.05C30.38 31.4287 29.83 30.8888 29.83 30.2088V26.9888H26.61C25.94 26.9888 25.39 26.4487 25.39 25.7687V21.6287C25.39 20.9587 25.94 20.4088 26.61 20.4088H29.83V17.1888C29.83 16.5188 30.38 15.9688 31.05 15.9688H35.18C35.85 15.9688 36.4 16.5188 36.4 17.1888V20.4088H39.62C40.29 20.4088 40.83 20.9587 40.83 21.6287V25.7687C40.83 26.4387 40.28 26.9888 39.62 26.9888H36.4V30.2088C36.4 30.8788 35.85 31.4287 35.18 31.4287Z" fill="#D89B86"/>
<path d="M39.38 19.0103H37.25V16.8803C37.25 15.6103 36.21 14.5703 34.94 14.5703H30.81C29.54 14.5703 28.5 15.6103 28.5 16.8803V19.0103H26.37C25.1 19.0103 24.06 20.0403 24.06 21.3203V25.4603C24.06 26.7303 25.1 27.7703 26.37 27.7703H28.5V29.9003C28.5 31.1703 29.54 32.2103 30.81 32.2103H34.94C36.21 32.2103 37.25 31.1803 37.25 29.9003V27.7703H39.38C40.65 27.7703 41.68 26.7403 41.68 25.4603V21.3203C41.68 20.0503 40.65 19.0103 39.38 19.0103ZM39.38 25.5803H36.16C35.56 25.5803 35.07 26.0703 35.07 26.6703V29.8903C35.07 29.9603 35.01 30.0203 34.94 30.0203L30.68 29.8903V26.6703C30.68 26.0703 30.19 25.5803 29.59 25.5803L26.24 25.4503L26.37 21.1903H29.59C30.19 21.1903 30.68 20.7003 30.68 20.1003L30.81 16.7503L35.07 16.8803V20.1003C35.07 20.7003 35.56 21.1903 36.16 21.1903L39.51 21.3203L39.39 25.5803H39.38Z" fill="#222E4C"/>
<path d="M59.01 0.859375H6.73C3.02 0.859375 0 3.87937 0 7.58937V39.1694C0 42.8794 3.02 45.8994 6.73 45.8994H24.91L23.37 56.3394H20.7C19.5 56.3394 18.52 57.3194 18.52 58.5194C18.52 59.7194 19.5 60.6994 20.7 60.6994H45.04C46.24 60.6994 47.22 59.7194 47.22 58.5194C47.22 57.3194 46.24 56.3394 45.04 56.3394H42.37L40.83 45.8994H59.01C62.72 45.8994 65.74 42.8794 65.74 39.1694V7.58937C65.74 3.87937 62.72 0.859375 59.01 0.859375ZM4.36 11.3994H61.39V35.3794H4.36V11.3994ZM6.74 5.21938H59.01C60.32 5.21938 61.39 6.28937 61.39 7.59937V9.21938H4.36V7.59937C4.36 6.28937 5.43 5.21938 6.74 5.21938ZM40.18 56.3494H25.59L27.13 45.9094H38.65L40.19 56.3494H40.18ZM59.02 41.5494H6.73C5.42 41.5494 4.35 40.4794 4.35 39.1694V37.5494H61.39V39.1694C61.39 40.4794 60.32 41.5494 59.01 41.5494H59.02Z" fill="#222E4C"/>
</svg>
